# This file uses centimeters as units for non-parametric coordinates.

mtllib BackRightWalls.mtl
g default
v -165.779999 3.085099 36.520000
v -168.232498 3.085149 36.520000
v -167.348007 3.300000 25.768000
v -165.699997 3.300000 25.799999
v -172.854202 3.085199 36.520000
v -171.897995 3.300001 25.768000
v -169.711502 3.300001 25.775999
v -170.732605 3.085174 36.520000
v -177.173996 3.085299 36.520000
v -176.292694 3.300101 25.768009
v -175.798004 3.300000 20.368000
v -171.897995 3.300101 20.368160
v -179.693405 3.300201 25.768009
v -179.198700 3.300100 20.368000
v -179.198700 3.300150 18.238819
v -179.198700 3.300175 14.954040
v -175.700195 3.300000 14.650000
v -175.700195 3.300000 18.150000
v -179.198700 3.300200 11.669270
v -175.700195 3.300000 11.500000
v -179.198700 3.300125 19.566160
v -175.700195 3.300000 19.549999
v -179.198700 3.300300 3.529106
v -175.700195 3.300100 3.989349
v -173.500000 3.300000 4.300003
v -173.500000 3.300100 11.500000
v -179.198700 3.300350 1.532417
v -175.700195 3.300150 1.992661
v -179.198700 3.300400 -0.603996
v -175.700195 3.300200 -0.143761
v -173.500000 3.300050 2.303314
v -173.500000 3.300100 0.166893
v -161.509903 3.300150 2.303314
v -161.500000 3.300100 4.300003
v -161.519806 3.300200 0.166893
v -161.367706 3.300250 2.937286
v -161.499802 3.300002 5.097763
v -161.377594 3.300300 0.800865
v -160.762405 3.300350 1.893982
v -161.047394 3.300006 4.377060
v -160.772293 3.300400 -0.242439
v -159.881393 3.300449 0.768188
v -160.428696 3.300002 3.615929
v -159.891296 3.300499 -1.368225
v -159.229401 3.300550 0.032852
v -159.166000 3.300006 2.049713
v -159.239304 3.300599 -2.103561
v -157.789597 3.300649 -0.854477
v -157.630203 3.300000 1.129211
v -157.799500 3.300699 -2.990898
v -156.573502 3.300749 -1.393021
v -156.615997 3.300000 0.659874
v -156.583405 3.300799 -3.529442
v -155.559799 3.300849 -1.530548
v -155.549896 3.300799 0.466148
v -155.569595 3.300899 -3.666969
v -153.699997 3.300000 -1.699997
v -153.676193 3.300000 0.308311
v -153.719299 3.300999 -3.843529
v -150.833801 3.301049 -3.843529
v -150.819199 3.300525 -1.703552
v -153.719299 3.301099 -6.830910
v -150.833801 3.301149 -6.830910
v -173.500000 -0.188390 0.166893
v -161.519806 -0.188291 0.166893
v -161.377594 -0.188191 0.800865
v -160.772293 -0.188091 -0.242439
v -159.891296 -0.187991 -1.368225
v -159.239304 -0.187891 -2.103561
v -157.799500 -0.187791 -2.990898
v -156.583405 -0.187691 -3.529442
v -155.569595 -0.187591 -3.666969
v -153.719299 -0.187491 -3.843529
v -153.719299 -0.187392 -6.830910
v -150.833801 -0.187341 -6.830910
v -175.700195 -0.188291 -0.143761
v -179.198700 -0.188091 -0.603996
v -179.198700 -0.188141 1.532417
v -179.198700 -0.188191 3.529106
v -179.198700 -0.188291 11.669270
v -179.198700 -0.188315 14.954040
v -179.198700 -0.188340 18.238819
v -179.198700 -0.188366 19.566160
v -179.198700 -0.188390 20.368000
v -179.693405 -0.188289 25.768009
v -176.292694 -0.188389 25.768009
v -177.173996 -0.403191 36.520000
v -172.854202 -0.403291 36.519989
v -166.107697 3.192700 39.251091
v -162.680206 3.085099 39.426399
v -162.683594 3.026209 36.520000
v -168.462601 3.192750 39.251091
v -172.979004 3.192800 39.251091
v -170.962708 3.192775 39.251091
v -172.979004 -0.295691 39.251080
vt 18.039989 -46.590691
vt 19.688000 -46.622681
vt 20.572460 -35.868542
vt 18.119989 -35.868542
vt 22.051550 -46.614689
vt 24.238010 -46.622681
vt 25.194180 -35.868542
vt 23.072599 -35.868542
vt 29.513960 -35.868542
vt 28.632721 -46.622681
vt 28.138020 -52.032009
vt 28.632721 -46.632000
vt 24.238010 -46.632000
vt 24.238010 -52.031841
vt 32.033371 -46.632000
vt 31.538670 -52.032009
vt 28.040211 -57.750000
vt 31.538670 -57.445961
vt 31.538670 -54.161190
vt 28.040211 -54.250000
vt 28.040211 -60.900002
vt 31.538670 -60.730728
vt 28.040211 -52.849998
vt 31.538670 -52.833839
vt 31.538670 -68.870903
vt 28.040211 -68.410652
vt 25.840000 -68.099998
vt 25.840000 -60.900002
vt 28.040211 -70.407341
vt 31.538670 -70.867577
vt 28.040211 -72.543762
vt 31.538670 -73.003998
vt 25.840000 -70.096687
vt 25.840000 -72.233109
vt 13.849880 -70.096687
vt 13.840000 -68.099998
vt 13.859770 -72.233109
vt 13.839760 -67.302238
vt 13.707730 -69.462723
vt 13.717620 -71.599136
vt 13.387420 -68.022942
vt 13.102430 -70.506020
vt 13.112320 -72.642441
vt 12.768680 -68.784073
vt 12.221390 -71.631813
vt 12.231280 -73.768227
vt 11.505980 -70.350288
vt 11.569440 -72.367149
vt 11.579330 -74.503563
vt 9.970230 -71.270790
vt 10.129560 -73.254478
vt 10.139450 -75.390900
vt 8.955963 -71.740128
vt 8.913498 -73.793022
vt 8.923386 -75.929443
vt 7.889862 -71.933853
vt 7.899750 -73.930550
vt 7.909637 -76.066971
vt 6.016205 -72.091690
vt 6.040009 -74.099998
vt 6.059311 -76.243530
vt 3.159180 -74.103554
vt 3.173767 -76.243530
vt 3.173767 -79.230911
vt 6.059311 -79.230911
vt 25.840000 -3.488390
vt 25.840000 0.000100
vt 13.859770 0.000200
vt 13.859770 -3.488291
vt 73.515427 -3.488291
vt 73.515427 0.000200
vt 72.865707 0.000300
vt 72.865707 -3.488191
vt -55.046791 -3.488191
vt -55.046791 0.000300
vt -56.252972 0.000400
vt -56.252972 -3.488091
vt -49.125271 -3.488091
vt -49.125271 0.000400
vt -50.554829 0.000499
vt -50.554829 -3.487991
vt -47.083542 -3.487991
vt -47.083542 0.000499
vt -48.066269 0.000599
vt -48.066269 -3.487891
vt -29.229469 -3.487891
vt -29.229469 0.000599
vt -30.920811 0.000699
vt -30.920811 -3.487791
vt -21.256790 -3.487791
vt -21.256790 0.000699
vt -22.586769 0.000799
vt -22.586769 -3.487691
vt -1.364880 -3.487691
vt -1.364880 0.000799
vt -2.387914 0.000899
vt -2.387914 -3.487591
vt 0.648329 -3.487591
vt 0.648329 0.000899
vt -1.210402 0.000999
vt -1.210402 -3.487491
vt -76.243530 -3.487491
vt -76.243530 0.000999
vt -79.230911 0.001099
vt -79.230911 -3.487391
vt 6.059311 -3.487391
vt 6.059311 0.001099
vt 3.173767 0.001149
vt 3.173767 -3.487341
vt 37.906879 -3.488291
vt 37.906879 0.000200
vt 35.684841 0.000100
vt 35.684841 -3.488390
vt 40.791161 -3.488091
vt 40.791161 0.000400
vt 37.262562 0.000200
vt 37.262562 -3.488291
vt -70.867577 -3.488141
vt -70.867577 0.000350
vt -73.003998 0.000400
vt -73.003998 -3.488091
vt -68.870903 -3.488191
vt -68.870903 0.000300
vt -60.730728 -3.488291
vt -60.730728 0.000200
vt -57.445961 -3.488315
vt -57.445961 0.000175
vt -54.161190 -3.488340
vt -54.161190 0.000150
vt -52.833839 -3.488365
vt -52.833839 0.000125
vt -52.032009 -3.488390
vt -52.032009 0.000100
vt -43.515129 -3.488289
vt -43.515129 0.000201
vt -48.937759 0.000100
vt -48.937759 -3.488390
vt -28.632721 -3.488389
vt -28.632721 0.000101
vt -32.033371 0.000201
vt -32.033371 -3.488289
vt -33.349190 -3.703188
vt -33.349190 -0.214698
vt -44.137241 0.000104
vt -44.137241 -3.488386
vt -25.194151 -3.703331
vt -25.194151 -0.214840
vt -29.513929 -0.214740
vt -29.513929 -3.703231
vt 15.001750 -35.844170
vt 18.098150 -35.848701
vt 18.429760 -33.118111
vt 15.000670 -32.941441
vt 18.119989 -35.768082
vt 20.572460 -35.768082
vt 20.802580 -33.037750
vt 18.447689 -33.037739
vt 23.072599 -35.768089
vt 25.194180 -35.768089
vt 25.319031 -33.037750
vt 23.302719 -33.037750
vt -33.221371 -3.703297
vt -30.491280 -3.595697
vt -30.491270 -0.107207
vt -33.221359 -0.214807
vn -0.000184 0.999800 0.020010
vn -0.000184 0.999800 0.020010
vn 0.000020 0.999800 0.019980
vn 0.000020 0.999800 0.019980
vn -0.000184 0.999800 0.020010
vn -0.000184 0.999800 0.020010
vn 0.000020 0.999800 0.019980
vn 0.000020 0.999800 0.019980
vn 0.000020 0.999800 0.019980
vn 0.000020 0.999800 0.019980
vn 0.000020 0.999800 0.019980
vn 0.000020 0.999800 0.019980
vn 0.000020 0.999800 0.019980
vn 0.000020 0.999800 0.019980
vn 0.000020 0.999800 0.019980
vn 0.000020 0.999800 0.019980
vn 0.000020 0.999800 0.019980
vn 0.000020 0.999800 0.019980
vn 0.000020 0.999800 0.019980
vn 0.000020 0.999800 0.019980
vn 0.000020 0.999800 0.019980
vn 0.000020 0.999800 0.019980
vn 0.000020 0.999800 0.019980
vn 0.000020 0.999800 0.019980
vn 0.000000 1.000000 0.000000
vn 0.000000 1.000000 0.000000
vn 0.000000 1.000000 0.000000
vn 0.000000 1.000000 0.000000
vn 0.000000 1.000000 0.000000
vn 0.000000 1.000000 0.000000
vn 0.000000 1.000000 0.000000
vn 0.000000 1.000000 0.000000
vn 0.000000 1.000000 0.000000
vn 0.000000 1.000000 0.000000
vn 0.000000 1.000000 0.000000
vn 0.000000 1.000000 0.000000
vn 0.000000 1.000000 0.000000
vn 0.000000 1.000000 0.000000
vn 0.000000 1.000000 0.000000
vn 0.000000 1.000000 0.000000
vn 0.000000 1.000000 0.000000
vn 0.000000 1.000000 0.000000
vn 0.000000 1.000000 0.000000
vn 0.000000 1.000000 0.000000
vn 0.000000 1.000000 0.000000
vn 0.000000 1.000000 0.000000
vn 0.000000 1.000000 0.000000
vn 0.000000 1.000000 0.000000
vn 0.000000 1.000000 0.000000
vn 0.000000 1.000000 0.000000
vn 0.000000 1.000000 0.000000
vn 0.000000 1.000000 0.000000
vn 0.000000 1.000000 0.000000
vn 0.000000 1.000000 0.000000
vn 0.000000 1.000000 0.000000
vn 0.000000 1.000000 0.000000
vn 0.000000 1.000000 0.000000
vn 0.000000 1.000000 0.000000
vn 0.000000 1.000000 0.000000
vn 0.000000 1.000000 0.000000
vn 0.000000 1.000000 0.000000
vn 0.000000 1.000000 0.000000
vn 0.000000 1.000000 0.000000
vn 0.000000 1.000000 0.000000
vn 0.000000 1.000000 0.000000
vn 0.000000 1.000000 0.000000
vn 0.000000 1.000000 0.000000
vn 0.000000 1.000000 0.000000
vn 0.000000 1.000000 0.000000
vn 0.000000 1.000000 0.000000
vn 0.000000 1.000000 0.000000
vn 0.000000 1.000000 0.000000
vn 0.000000 1.000000 0.000000
vn 0.000000 1.000000 0.000000
vn 0.000000 1.000000 0.000000
vn 0.000000 1.000000 0.000000
vn 0.000000 1.000000 0.000000
vn 0.000000 1.000000 0.000000
vn 0.000000 1.000000 0.000000
vn 0.000000 1.000000 0.000000
vn 0.000000 1.000000 0.000000
vn 0.000000 1.000000 0.000000
vn 0.000000 1.000000 0.000000
vn 0.000000 1.000000 0.000000
vn 0.000000 1.000000 0.000000
vn 0.000000 1.000000 0.000000
vn 0.000000 1.000000 0.000000
vn 0.000000 1.000000 0.000000
vn 0.000000 1.000000 0.000000
vn 0.000000 1.000000 0.000000
vn 0.000000 1.000000 0.000000
vn 0.000000 1.000000 0.000000
vn 0.000000 1.000000 0.000000
vn 0.000000 1.000000 0.000000
vn 0.000000 1.000000 0.000000
vn 0.000000 1.000000 0.000000
vn 0.000000 1.000000 0.000000
vn 0.000000 1.000000 0.000000
vn 0.000000 1.000000 0.000000
vn 0.000000 1.000000 0.000000
vn 0.000000 1.000000 0.000000
vn 0.000000 1.000000 0.000000
vn 0.000000 1.000000 0.000000
vn 0.000000 1.000000 0.000000
vn 0.000000 1.000000 0.000000
vn 0.000000 1.000000 0.000000
vn 0.000000 1.000000 0.000000
vn 0.000000 1.000000 0.000000
vn 0.000000 1.000000 0.000000
vn -0.000039 1.000000 -0.000352
vn -0.000831 1.000000 0.000029
vn -0.000831 1.000000 0.000029
vn -0.000039 1.000000 -0.000352
vn 0.000000 1.000000 0.000000
vn -0.000831 1.000000 0.000029
vn -0.000831 1.000000 0.000029
vn -0.000831 1.000000 0.000029
vn -0.000831 1.000000 0.000029
vn -0.000831 1.000000 0.000029
vn -0.000831 1.000000 0.000029
vn 0.000000 1.000000 0.000000
vn 0.000000 1.000000 0.000000
vn 0.000000 1.000000 0.000000
vn 0.000000 1.000000 0.000000
vn 0.000000 1.000000 0.000000
vn 0.000000 1.000000 0.000000
vn 0.000000 1.000000 0.000000
vn 0.000000 1.000000 0.000000
vn 0.000000 1.000000 0.000000
vn 0.000000 1.000000 0.000000
vn 0.000000 1.000000 0.000000
vn 0.000000 1.000000 0.000000
vn 0.000000 1.000000 0.000000
vn 0.000000 1.000000 0.000000
vn 0.000000 1.000000 0.000000
vn 0.000000 1.000000 0.000000
vn 0.000000 1.000000 0.000000
vn 0.000000 1.000000 0.000000
vn 0.000000 1.000000 0.000000
vn 0.000000 1.000000 0.000000
vn 0.000000 1.000000 0.000000
vn 0.000000 1.000000 0.000000
vn 0.000000 1.000000 0.000000
vn 0.000000 1.000000 0.000000
vn -0.000039 1.000000 -0.000352
vn -0.000039 1.000000 -0.000352
vn -0.000039 1.000000 -0.000352
vn -0.000039 1.000000 -0.000352
vn -0.000039 1.000000 -0.000352
vn -0.000039 1.000000 -0.000352
vn 0.000000 1.000000 0.000000
vn 0.000000 1.000000 0.000000
vn 0.000000 1.000000 0.000000
vn 0.000000 1.000000 0.000000
vn 0.000000 1.000000 0.000000
vn 0.000000 1.000000 0.000000
vn -0.000039 1.000000 -0.000352
vn -0.000039 1.000000 -0.000352
vn -0.000039 1.000000 -0.000352
vn -0.000039 1.000000 -0.000352
vn -0.000039 1.000000 -0.000352
vn -0.000039 1.000000 -0.000352
vn 0.000000 1.000000 0.000000
vn 0.000000 1.000000 0.000000
vn 0.000000 1.000000 0.000000
vn 0.000000 1.000000 0.000000
vn 0.000000 1.000000 0.000000
vn 0.000000 1.000000 0.000000
vn -0.000039 1.000000 -0.000352
vn -0.000039 1.000000 -0.000352
vn -0.000039 1.000000 -0.000352
vn -0.000039 1.000000 -0.000352
vn -0.000039 1.000000 -0.000352
vn -0.000039 1.000000 -0.000352
vn 0.000000 1.000000 0.000000
vn 0.000000 1.000000 0.000000
vn 0.000000 1.000000 0.000000
vn 0.000000 1.000000 0.000000
vn 0.000000 1.000000 0.000000
vn 0.000000 1.000000 0.000000
vn -0.000039 1.000000 -0.000352
vn 0.000000 1.000000 0.000000
vn -0.000039 1.000000 -0.000352
vn -0.000039 1.000000 -0.000352
vn -0.000831 1.000000 0.000029
vn -0.000039 1.000000 -0.000352
vn 0.000000 1.000000 0.000000
vn 0.000000 1.000000 0.000000
vn 0.000000 1.000000 0.000000
vn 0.000000 1.000000 0.000000
vn 0.000000 1.000000 0.000000
vn 0.000000 1.000000 0.000000
vn -0.000039 1.000000 -0.000352
vn -0.000039 1.000000 -0.000352
vn -0.000039 1.000000 -0.000352
vn -0.000039 1.000000 -0.000352
vn -0.000039 1.000000 -0.000352
vn -0.000039 1.000000 -0.000352
vn -0.000039 1.000000 -0.000352
vn -0.000039 1.000000 -0.000352
vn -0.000039 1.000000 -0.000352
vn -0.000039 1.000000 -0.000352
vn -0.000039 1.000000 -0.000352
vn -0.000039 1.000000 -0.000352
vn -0.000039 1.000000 -0.000352
vn -0.000039 1.000000 -0.000352
vn -0.000039 1.000000 -0.000352
vn -0.000039 1.000000 -0.000352
vn -0.000039 1.000000 -0.000352
vn -0.000039 1.000000 -0.000352
vn 0.000000 1.000000 0.000000
vn 0.000000 1.000000 0.000000
vn 0.000000 1.000000 0.000000
vn 0.000000 1.000000 0.000000
vn 0.000000 1.000000 0.000000
vn 0.000000 1.000000 0.000000
vn 0.000000 0.000000 -1.000000
vn 0.000000 0.000000 -1.000000
vn 0.000000 0.000000 -1.000000
vn 0.000000 0.000000 -1.000000
vn 0.000000 0.000000 -1.000000
vn 0.000000 0.000000 -1.000000
vn 0.975772 0.000000 -0.218790
vn 0.975772 0.000000 -0.218790
vn 0.975772 0.000000 -0.218790
vn 0.975772 0.000000 -0.218790
vn 0.975772 0.000000 -0.218790
vn 0.975772 0.000000 -0.218790
vn -0.864965 0.000000 -0.501832
vn -0.864965 0.000000 -0.501832
vn -0.864965 0.000000 -0.501832
vn -0.864965 0.000000 -0.501832
vn -0.864965 0.000000 -0.501832
vn -0.864965 0.000000 -0.501832
vn -0.787507 0.000000 -0.616305
vn -0.787507 0.000000 -0.616305
vn -0.787507 0.000000 -0.616305
vn -0.787507 0.000000 -0.616305
vn -0.787507 0.000000 -0.616305
vn -0.787507 0.000000 -0.616305
vn -0.748260 0.000000 -0.663405
vn -0.748260 0.000000 -0.663405
vn -0.748260 0.000000 -0.663405
vn -0.748260 0.000000 -0.663405
vn -0.748260 0.000000 -0.663405
vn -0.748260 0.000000 -0.663405
vn -0.524636 0.000000 -0.851327
vn -0.524636 0.000000 -0.851327
vn -0.524636 0.000000 -0.851327
vn -0.524636 0.000000 -0.851327
vn -0.524636 0.000000 -0.851327
vn -0.524636 0.000000 -0.851327
vn -0.404927 0.000000 -0.914349
vn -0.404927 0.000000 -0.914349
vn -0.404927 0.000000 -0.914349
vn -0.404927 0.000000 -0.914349
vn -0.404927 0.000000 -0.914349
vn -0.404927 0.000000 -0.914349
vn -0.134431 0.000000 -0.990923
vn -0.134431 0.000000 -0.990923
vn -0.134431 0.000000 -0.990923
vn -0.134431 0.000000 -0.990923
vn -0.134431 0.000000 -0.990923
vn -0.134431 0.000000 -0.990923
vn -0.094989 0.000000 -0.995478
vn -0.094989 0.000000 -0.995478
vn -0.094989 0.000000 -0.995478
vn -0.094989 0.000000 -0.995478
vn -0.094989 0.000000 -0.995478
vn -0.094989 0.000000 -0.995478
vn -1.000000 0.000000 0.000000
vn -1.000000 0.000000 0.000000
vn -1.000000 0.000000 0.000000
vn -1.000000 0.000000 0.000000
vn -1.000000 0.000000 0.000000
vn -1.000000 0.000000 0.000000
vn 0.000000 0.000000 -1.000000
vn 0.000000 0.000000 -1.000000
vn 0.000000 0.000000 -1.000000
vn 0.000000 0.000000 -1.000000
vn 0.000000 0.000000 -1.000000
vn 0.000000 0.000000 -1.000000
vn 0.139806 0.000000 -0.990179
vn 0.139806 0.000000 -0.990179
vn 0.139806 0.000000 -0.990179
vn 0.139806 0.000000 -0.990179
vn 0.139806 0.000000 -0.990179
vn 0.139806 0.000000 -0.990179
vn 0.130430 0.000000 -0.991458
vn 0.130430 0.000000 -0.991458
vn 0.130430 0.000000 -0.991458
vn 0.130430 0.000000 -0.991458
vn 0.130430 0.000000 -0.991458
vn 0.130430 0.000000 -0.991458
vn -1.000000 0.000000 0.000000
vn -1.000000 0.000000 0.000000
vn -1.000000 0.000000 0.000000
vn -1.000000 0.000000 0.000000
vn -1.000000 0.000000 0.000000
vn -1.000000 0.000000 0.000000
vn -1.000000 0.000000 0.000000
vn -1.000000 0.000000 0.000000
vn -1.000000 0.000000 0.000000
vn -1.000000 0.000000 0.000000
vn -1.000000 0.000000 0.000000
vn -1.000000 0.000000 0.000000
vn -1.000000 0.000000 0.000000
vn -1.000000 0.000000 0.000000
vn -1.000000 0.000000 0.000000
vn -1.000000 0.000000 0.000000
vn -1.000000 0.000000 0.000000
vn -1.000000 0.000000 0.000000
vn -1.000000 0.000000 0.000000
vn -1.000000 0.000000 0.000000
vn -1.000000 0.000000 0.000000
vn -1.000000 0.000000 0.000000
vn -1.000000 0.000000 0.000000
vn -1.000000 0.000000 0.000000
vn -1.000000 0.000000 0.000000
vn -1.000000 0.000000 0.000000
vn -1.000000 0.000000 0.000000
vn -1.000000 0.000000 0.000000
vn -1.000000 0.000000 0.000000
vn -1.000000 0.000000 0.000000
vn -1.000000 0.000000 0.000000
vn -1.000000 0.000000 0.000000
vn -1.000000 0.000000 0.000000
vn -1.000000 0.000000 0.000000
vn -1.000000 0.000000 0.000000
vn -1.000000 0.000000 0.000000
vn -1.000000 0.000000 0.000000
vn -1.000000 0.000000 0.000000
vn -1.000000 0.000000 0.000000
vn -1.000000 0.000000 0.000000
vn -1.000000 0.000000 0.000000
vn -1.000000 0.000000 0.000000
vn -0.995830 0.000000 -0.091230
vn -0.995830 0.000000 -0.091230
vn -0.995830 0.000000 -0.091230
vn -0.995830 0.000000 -0.091230
vn -0.995830 0.000000 -0.091230
vn -0.995830 0.000000 -0.091230
vn 0.000000 0.000000 1.000000
vn 0.000000 0.000000 1.000000
vn 0.000000 0.000000 1.000000
vn 0.000000 0.000000 1.000000
vn 0.000000 0.000000 1.000000
vn 0.000000 0.000000 1.000000
vn -0.996658 -0.000000 -0.081687
vn -0.996658 -0.000000 -0.081687
vn -0.996658 -0.000000 -0.081687
vn -0.996658 -0.000000 -0.081687
vn -0.996658 -0.000000 -0.081687
vn -0.996658 -0.000000 -0.081687
vn 0.000000 0.000000 1.000000
vn 0.000000 0.000000 1.000000
vn 0.000000 0.000000 1.000000
vn 0.000000 0.000000 1.000000
vn 0.000000 0.000000 1.000000
vn 0.000000 0.000000 1.000000
vn 0.019011 0.999614 -0.020276
vn 0.026090 0.999272 -0.027826
vn 0.033166 0.998824 -0.035373
vn 0.033166 0.998824 -0.035373
vn 0.026090 0.999272 -0.027826
vn 0.019011 0.999614 -0.020276
vn 0.000021 0.999225 -0.039366
vn 0.000021 0.999225 -0.039366
vn 0.000021 0.999225 -0.039366
vn 0.000021 0.999225 -0.039366
vn 0.000021 0.999225 -0.039366
vn 0.000021 0.999225 -0.039366
vn 0.000021 0.999225 -0.039366
vn 0.000021 0.999225 -0.039366
vn 0.000021 0.999225 -0.039366
vn 0.000021 0.999225 -0.039366
vn 0.000021 0.999225 -0.039366
vn 0.000021 0.999225 -0.039366
vn 0.000021 0.999225 -0.039366
vn 0.000021 0.999225 -0.039366
vn 0.000021 0.999225 -0.039366
vn 0.000021 0.999225 -0.039366
vn 0.000021 0.999225 -0.039366
vn 0.000021 0.999225 -0.039366
vn -0.998957 0.000000 -0.045666
vn -0.998957 0.000000 -0.045666
vn -0.998957 0.000000 -0.045666
vn -0.998957 0.000000 -0.045666
vn -0.998957 0.000000 -0.045666
vn -0.998957 0.000000 -0.045666
s off
g polySurface4 Plane
usemtl unlitblack
f 4/1/1 3/2/2 2/3/3
f 2/3/4 1/4/5 4/1/6
f 7/5/7 6/6/8 5/7/9
f 5/7/10 8/8/11 7/5/12
f 3/2/13 7/5/14 8/8/15
f 8/8/16 2/3/17 3/2/18
f 9/9/19 5/7/20 6/6/21
f 6/6/22 10/10/23 9/9/24
f 11/11/25 10/12/26 6/13/27
f 6/13/28 12/14/29 11/11/30
f 13/15/31 10/12/32 11/11/33
f 11/11/34 14/16/35 13/15/36
f 17/17/37 16/18/38 15/19/39
f 15/19/40 18/20/41 17/17/42
f 20/21/43 19/22/44 16/18/45
f 16/18/46 17/17/47 20/21/48
f 22/23/49 21/24/50 14/16/51
f 14/16/52 11/11/53 22/23/54
f 18/20/55 15/19/56 21/24/57
f 21/24/58 22/23/59 18/20/60
f 23/25/61 19/22/62 20/21/63
f 20/21/64 24/26/65 23/25/66
f 25/27/67 24/26/68 20/21/69
f 20/21/70 26/28/71 25/27/72
f 28/29/73 27/30/74 23/25/75
f 23/25/76 24/26/77 28/29/78
f 30/31/79 29/32/80 27/30/81
f 27/30/82 28/29/83 30/31/84
f 31/33/85 28/29/86 24/26/87
f 24/26/88 25/27/89 31/33/90
f 32/34/91 30/31/92 28/29/93
f 28/29/94 31/33/95 32/34/96
f 33/35/97 31/33/98 25/27/99
f 25/27/100 34/36/101 33/35/102
f 35/37/103 32/34/104 31/33/105
f 31/33/106 33/35/107 35/37/108
f 37/38/109 36/39/110 33/35/111
f 33/35/112 34/36/113 37/38/114
f 36/39/115 38/40/116 35/37/117
f 35/37/118 33/35/119 36/39/120
f 40/41/121 39/42/122 36/39/123
f 36/39/124 37/38/125 40/41/126
f 39/42/127 41/43/128 38/40/129
f 38/40/130 36/39/131 39/42/132
f 43/44/133 42/45/134 39/42/135
f 39/42/136 40/41/137 43/44/138
f 42/45/139 44/46/140 41/43/141
f 41/43/142 39/42/143 42/45/144
f 46/47/145 45/48/146 42/45/147
f 42/45/148 43/44/149 46/47/150
f 45/48/151 47/49/152 44/46/153
f 44/46/154 42/45/155 45/48/156
f 49/50/157 48/51/158 45/48/159
f 45/48/160 46/47/161 49/50/162
f 48/51/163 50/52/164 47/49/165
f 47/49/166 45/48/167 48/51/168
f 52/53/169 51/54/170 48/51/171
f 48/51/172 49/50/173 52/53/174
f 51/54/175 53/55/176 50/52/177
f 50/52/178 48/51/179 51/54/180
f 55/56/181 54/57/182 51/54/183
f 51/54/184 52/53/185 55/56/186
f 54/57/187 56/58/188 53/55/189
f 53/55/190 51/54/191 54/57/192
f 58/59/193 57/60/194 54/57/195
f 54/57/196 55/56/197 58/59/198
f 57/60/199 59/61/200 56/58/201
f 56/58/202 54/57/203 57/60/204
f 61/62/205 60/63/206 59/61/207
f 59/61/208 57/60/209 61/62/210
f 60/63/211 63/64/212 62/65/213
f 62/65/214 59/61/215 60/63/216
f 64/66/217 32/67/218 35/68/219
f 35/68/220 65/69/221 64/66/222
f 65/70/223 35/71/224 38/72/225
f 38/72/226 66/73/227 65/70/228
f 66/74/229 38/75/230 41/76/231
f 41/76/232 67/77/233 66/74/234
f 67/78/235 41/79/236 44/80/237
f 44/80/238 68/81/239 67/78/240
f 68/82/241 44/83/242 47/84/243
f 47/84/244 69/85/245 68/82/246
f 69/86/247 47/87/248 50/88/249
f 50/88/250 70/89/251 69/86/252
f 70/90/253 50/91/254 53/92/255
f 53/92/256 71/93/257 70/90/258
f 71/94/259 53/95/260 56/96/261
f 56/96/262 72/97/263 71/94/264
f 72/98/265 56/99/266 59/100/267
f 59/100/268 73/101/269 72/98/270
f 73/102/271 59/103/272 62/104/273
f 62/104/274 74/105/275 73/102/276
f 74/106/277 62/107/278 63/108/279
f 63/108/280 75/109/281 74/106/282
f 76/110/283 30/111/284 32/112/285
f 32/112/286 64/113/287 76/110/288
f 77/114/289 29/115/290 30/116/291
f 30/116/292 76/117/293 77/114/294
f 78/118/295 27/119/296 29/120/297
f 29/120/298 77/121/299 78/118/300
f 79/122/301 23/123/302 27/119/303
f 27/119/304 78/118/305 79/122/306
f 80/124/307 19/125/308 23/123/309
f 23/123/310 79/122/311 80/124/312
f 81/126/313 16/127/314 19/125/315
f 19/125/316 80/124/317 81/126/318
f 82/128/319 15/129/320 16/127/321
f 16/127/322 81/126/323 82/128/324
f 83/130/325 21/131/326 15/129/327
f 15/129/328 82/128/329 83/130/330
f 84/132/331 14/133/332 21/131/333
f 21/131/334 83/130/335 84/132/336
f 85/134/337 13/135/338 14/136/339
f 14/136/340 84/137/341 85/134/342
f 86/138/343 10/139/344 13/140/345
f 13/140/346 85/141/347 86/138/348
f 87/142/349 9/143/350 10/144/351
f 10/144/352 86/145/353 87/142/354
f 88/146/355 5/147/356 9/148/357
f 9/148/358 87/149/359 88/146/360
f 91/150/361 1/151/362 89/152/363
f 89/152/364 90/153/365 91/150/366
f 1/154/367 2/155/368 92/156/369
f 92/156/370 89/157/371 1/154/372
f 8/158/373 5/159/374 93/160/375
f 93/160/376 94/161/377 8/158/378
f 2/155/379 8/158/380 94/161/381
f 94/161/382 92/156/383 2/155/384
f 88/162/385 95/163/386 93/164/387
f 93/164/388 5/165/389 88/162/390
