# This file uses centimeters as units for non-parametric coordinates.

mtllib FrontRightWalls.mtl
g default
v -149.535004 3.300000 72.400002
v -149.535004 3.300000 76.283737
v -149.535004 3.300000 77.400002
v -149.535004 3.300000 79.900002
v -149.535004 3.300000 82.400002
v -151.410004 3.300000 72.400002
v -151.410004 3.300000 76.283737
v -151.410004 3.300000 77.400002
v -151.410004 3.300000 79.900002
v -151.410004 3.300000 82.400002
v -152.998703 3.295904 72.399979
v -153.285004 3.300000 76.283737
v -153.285004 3.300000 77.400002
v -153.285004 3.300000 79.900002
v -153.285004 3.300000 82.400002
v -154.899994 3.300000 72.250000
v -155.160004 3.300000 76.283737
v -155.160004 3.300000 77.400002
v -155.160004 3.300000 79.900002
v -155.160004 3.300000 82.400002
v -149.535004 -0.064451 82.400002
v -151.410004 -0.064451 82.400002
v -153.285004 -0.064451 82.400002
v -155.160004 -0.203449 82.400002
v -159.362793 3.300100 76.283737
v -159.306305 3.300100 72.400002
v -159.051407 3.300050 65.199997
v -154.848602 3.299950 65.199997
v -159.655396 3.300200 72.400002
v -159.400497 3.300150 65.199997
v -161.114899 3.300250 72.400002
v -160.860001 3.300200 66.990921
v -162.574402 3.300300 72.400002
v -162.319595 3.300250 66.990921
v -160.825302 3.300125 62.799900
v -159.400497 3.300250 62.799801
v -162.250000 3.300000 62.799999
v -167.016602 3.300350 66.990921
v -166.947098 3.300100 62.799999
v -166.522400 3.300200 43.698330
v -162.250000 3.300100 43.599609
v -166.491501 3.300250 43.209759
v -162.467102 3.212346 43.116890
v -166.435394 3.300300 40.067230
v -162.684204 3.124592 39.980190
v -158.639999 3.124590 43.205002
v -158.733994 3.300000 43.641991
v -158.639801 3.124590 39.980190
v -166.435394 -0.188190 40.067219
v -166.491501 -0.188240 43.209759
v -166.522400 -0.188290 43.698318
v -166.947098 -0.188390 62.799999
v -167.016602 -0.188140 66.990921
v -162.319595 -0.188240 66.990921
v -162.574402 -0.188191 72.400002
v -159.655396 -0.188291 72.400002
v -161.114899 -0.188240 72.400002
v -159.306305 -0.188390 72.400002
v -159.362793 -0.188390 76.283737
v -155.160004 -0.188490 76.283737
v -155.160004 -0.188490 77.400002
v -155.160004 -0.188490 79.900002
vt 3.750000 3.883743
vt 1.875000 3.883743
vt 1.875000 0.000000
vt 3.750000 0.000000
vt 3.750000 5.000000
vt 1.875000 5.000000
vt 3.750000 7.500000
vt 1.875000 7.500000
vt 3.750000 10.000000
vt 1.875000 10.000000
vt 5.624981 3.883743
vt 3.749988 3.883743
vt 3.749988 0.000000
vt 5.338692 -0.000023
vt 5.625000 5.000000
vt 5.625000 3.883743
vt 5.625000 7.500000
vt 5.625000 10.000000
vt 7.499981 3.883727
vt 7.239987 -0.150016
vt 7.500000 5.000000
vt 7.500000 3.883743
vt 7.500000 7.500000
vt 7.500000 10.000000
vt -1.875000 -3.364451
vt -1.875000 0.000000
vt -3.750000 0.000000
vt -3.750000 -3.364451
vt -5.625000 0.000000
vt -5.625000 -3.364451
vt -7.500000 0.000100
vt -7.500000 0.000100
vt -7.500000 -3.503448
vt 11.702770 3.883743
vt 7.240005 -0.150001
vt 11.646290 0.000000
vt 11.391400 -7.199997
vt 7.188629 -7.199997
vt 11.995390 0.000000
vt 11.740510 -7.199997
vt 13.200040 -5.409081
vt 13.454920 -0.000000
vt 14.659560 -5.409081
vt 14.914440 -0.000000
vt 11.740510 -9.600197
vt 13.165250 -9.600100
vt 14.590000 -9.600002
vt 19.356630 -5.409081
vt 19.287060 -9.600002
vt 18.862400 -28.701679
vt 14.590000 -28.800390
vt 14.795350 -29.282400
vt 18.820379 -29.189470
vt 18.851280 -28.700899
vt 14.581390 -28.799789
vt 15.009300 -32.418980
vt 18.764339 -32.332001
vt 11.072970 -28.601219
vt 10.976600 -29.054670
vt 14.804540 -29.138330
vt 14.588650 -28.648569
vt 10.976410 -32.260052
vt 15.020420 -32.266060
vt -28.849621 -3.488240
vt -28.849621 0.000250
vt -31.992649 0.000300
vt -31.992649 -3.488190
vt -27.453251 -3.488292
vt -27.453251 0.000199
vt -27.942789 0.000249
vt -27.942789 -3.488242
vt -9.168948 -3.488390
vt -9.168948 0.000100
vt -28.275339 0.000200
vt -28.275339 -3.488290
vt -5.087080 -3.488140
vt -5.087080 0.000350
vt -9.278580 0.000100
vt -9.278580 -3.488390
vt -14.659560 -3.488240
vt -14.659560 0.000250
vt -19.356630 0.000350
vt -19.356630 -3.488140
vt 0.702009 -3.488191
vt 0.702009 0.000300
vt -4.713074 0.000250
vt -4.713074 -3.488240
vt -11.995390 -3.488291
vt -11.995390 0.000200
vt -13.454920 0.000250
vt -13.454930 -3.488240
vt -14.914440 0.000300
vt -14.914440 -3.488191
vt -11.646290 -3.488390
vt -11.646290 0.000100
vt 4.053528 -3.488390
vt 4.053528 0.000100
vt 0.169374 0.000100
vt 0.169374 -3.488390
vt -7.500000 -3.488490
vt -7.500000 0.000100
vt -11.702770 0.000100
vt -11.702770 -3.488390
vt 5.000000 -3.488490
vt 5.000000 0.000000
vt 3.883743 0.000000
vt 3.883743 -3.488490
vt 7.500000 -3.488490
vt 7.500000 0.000000
vt 10.000000 -3.503448
vt 10.000000 0.000000
vn 0.000000 1.000000 0.000000
vn 0.000000 1.000000 0.000000
vn 0.000000 1.000000 0.000000
vn 0.000000 1.000000 0.000000
vn 0.000000 1.000000 0.000000
vn 0.000000 1.000000 0.000000
vn 0.000000 1.000000 0.000000
vn 0.000000 1.000000 0.000000
vn 0.000000 1.000000 0.000000
vn 0.000000 1.000000 0.000000
vn 0.000000 1.000000 0.000000
vn 0.000000 1.000000 0.000000
vn 0.000000 1.000000 0.000000
vn 0.000000 1.000000 0.000000
vn 0.000000 1.000000 0.000000
vn 0.000000 1.000000 0.000000
vn 0.000000 1.000000 0.000000
vn 0.000000 1.000000 0.000000
vn 0.000000 1.000000 0.000000
vn 0.000000 1.000000 0.000000
vn 0.000000 1.000000 0.000000
vn 0.000000 1.000000 0.000000
vn 0.000000 1.000000 0.000000
vn 0.000000 1.000000 0.000000
vn 0.000000 1.000000 -0.001055
vn -0.001289 0.999999 -0.000527
vn -0.002578 0.999997 0.000000
vn -0.002578 0.999997 0.000000
vn -0.001289 0.999999 -0.000527
vn 0.000000 1.000000 -0.001055
vn 0.000000 1.000000 0.000000
vn 0.000000 1.000000 0.000000
vn 0.000000 1.000000 0.000000
vn 0.000000 1.000000 0.000000
vn 0.000000 1.000000 0.000000
vn 0.000000 1.000000 0.000000
vn 0.000000 1.000000 0.000000
vn 0.000000 1.000000 0.000000
vn 0.000000 1.000000 0.000000
vn 0.000000 1.000000 0.000000
vn 0.000000 1.000000 0.000000
vn 0.000000 1.000000 0.000000
vn 0.000000 1.000000 0.000000
vn 0.000000 1.000000 0.000000
vn 0.000000 1.000000 0.000000
vn 0.000000 1.000000 0.000000
vn 0.000000 1.000000 0.000000
vn 0.000000 1.000000 0.000000
vn 0.000000 1.000000 0.000000
vn 0.001112 0.999999 -0.000445
vn 0.002225 0.999997 -0.000891
vn 0.002225 0.999997 -0.000891
vn 0.001112 0.999999 -0.000445
vn 0.000000 1.000000 0.000000
vn 0.000000 1.000000 0.000000
vn 0.000000 1.000000 0.000000
vn 0.000000 1.000000 0.000000
vn 0.000000 1.000000 0.000000
vn 0.000000 1.000000 0.000000
vn 0.000000 1.000000 0.000000
vn 0.000000 1.000000 0.000000
vn 0.000000 1.000000 0.000000
vn 0.000000 1.000000 0.000000
vn 0.000000 1.000000 0.000000
vn 0.000000 1.000000 0.000000
vn 0.000000 1.000000 0.000000
vn 0.000000 1.000000 0.000000
vn 0.000000 1.000000 0.000000
vn 0.000000 1.000000 0.000000
vn 0.000000 1.000000 0.000000
vn 0.000000 1.000000 0.000000
vn 0.000000 1.000000 0.000000
vn 0.000000 0.000000 1.000000
vn 0.000000 0.000000 1.000000
vn 0.000000 0.000000 1.000000
vn 0.000000 0.000000 1.000000
vn 0.000000 0.000000 1.000000
vn 0.000000 0.000000 1.000000
vn 0.000000 0.000000 1.000000
vn 0.000000 0.000000 1.000000
vn 0.000000 0.000000 1.000000
vn 0.000000 0.000000 1.000000
vn 0.000000 0.000000 1.000000
vn 0.000000 0.000000 1.000000
vn 0.000000 0.000000 1.000000
vn 0.000000 0.000000 1.000000
vn 0.000000 0.000000 1.000000
vn 0.000000 0.000000 1.000000
vn 0.000000 0.000000 1.000000
vn 0.000000 0.000000 1.000000
vn 0.000000 1.000000 0.000000
vn 0.000000 1.000000 0.000000
vn 0.000000 1.000000 0.000000
vn 0.000000 1.000000 0.000000
vn 0.000000 1.000000 0.000000
vn 0.000000 1.000000 0.000000
vn 0.000000 1.000000 0.000000
vn 0.000000 1.000000 0.000000
vn 0.000000 1.000000 0.000000
vn 0.000000 1.000000 0.000000
vn 0.000000 1.000000 0.000000
vn 0.000000 1.000000 0.000000
vn 0.000000 1.000000 0.000000
vn 0.000000 1.000000 0.000000
vn 0.000000 1.000000 0.000000
vn 0.000000 1.000000 0.000000
vn 0.000000 1.000000 0.000000
vn 0.000000 1.000000 0.000000
vn 0.000000 1.000000 0.000000
vn 0.000000 1.000000 0.000000
vn 0.000000 1.000000 0.000000
vn 0.000000 1.000000 0.000000
vn 0.000000 1.000000 0.000000
vn 0.000000 1.000000 0.000000
vn 0.000000 1.000000 0.000000
vn 0.000000 1.000000 0.000000
vn 0.000000 1.000000 0.000000
vn 0.000000 1.000000 0.000000
vn 0.000000 1.000000 0.000000
vn 0.000000 1.000000 0.000000
vn 0.000000 1.000000 0.000000
vn 0.000000 1.000000 0.000000
vn 0.000000 1.000000 0.000000
vn 0.000000 1.000000 0.000000
vn 0.000000 1.000000 0.000000
vn 0.000000 1.000000 0.000000
vn 0.000000 1.000000 0.000000
vn 0.000000 1.000000 0.000000
vn 0.000000 1.000000 0.000000
vn 0.000000 1.000000 0.000000
vn 0.000000 1.000000 0.000000
vn 0.000000 1.000000 0.000000
vn 0.000000 1.000000 0.000000
vn 0.000000 1.000000 0.000000
vn 0.000000 1.000000 0.000000
vn 0.000000 1.000000 0.000000
vn 0.000000 1.000000 0.000000
vn 0.000000 1.000000 0.000000
vn 0.000000 1.000000 0.000000
vn 0.000000 1.000000 0.000000
vn 0.000000 1.000000 0.000000
vn 0.000000 1.000000 0.000000
vn 0.000000 1.000000 0.000000
vn 0.000000 1.000000 0.000000
vn 0.008938 0.996066 -0.088162
vn 0.021872 0.999760 0.001486
vn 0.008938 0.996066 -0.088162
vn 0.008938 0.996066 -0.088162
vn -0.004069 0.984187 -0.177086
vn 0.008938 0.996066 -0.088162
vn 0.033986 0.999320 -0.014288
vn 0.046809 0.998904 0.000851
vn 0.033986 0.999320 -0.014288
vn 0.033986 0.999320 -0.014288
vn 0.021150 0.999343 -0.029422
vn 0.033986 0.999320 -0.014288
vn 0.004507 0.928352 -0.371674
vn 0.015769 0.959179 -0.282359
vn 0.026888 0.981322 -0.190487
vn 0.026888 0.981322 -0.190487
vn 0.015769 0.959179 -0.282359
vn 0.004507 0.928352 -0.371674
vn 0.022924 0.999737 0.000001
vn 0.011464 0.999837 -0.013984
vn 0.000000 0.999609 -0.027966
vn 0.000000 0.999609 -0.027966
vn 0.011464 0.999837 -0.013984
vn 0.022924 0.999737 0.000001
vn -0.999841 0.000000 -0.017841
vn -0.999841 0.000000 -0.017841
vn -0.999841 0.000000 -0.017841
vn -0.999841 0.000000 -0.017841
vn -0.999841 0.000000 -0.017841
vn -0.999841 0.000000 -0.017841
vn -0.998004 0.000000 -0.063149
vn -0.998004 0.000000 -0.063149
vn -0.998004 0.000000 -0.063149
vn -0.998004 0.000000 -0.063149
vn -0.998004 0.000000 -0.063149
vn -0.998004 0.000000 -0.063149
vn -0.999753 0.000000 -0.022226
vn -0.999753 0.000000 -0.022226
vn -0.999753 0.000000 -0.022226
vn -0.999753 0.000000 -0.022226
vn -0.999753 0.000000 -0.022226
vn -0.999753 0.000000 -0.022226
vn -0.999862 0.000000 -0.016597
vn -0.999862 0.000000 -0.016597
vn -0.999862 0.000000 -0.016597
vn -0.999862 0.000000 -0.016597
vn -0.999862 0.000000 -0.016597
vn -0.999862 0.000000 -0.016597
vn 0.000000 0.000000 1.000000
vn 0.000000 0.000000 1.000000
vn 0.000000 0.000000 1.000000
vn 0.000000 0.000000 1.000000
vn 0.000000 0.000000 1.000000
vn 0.000000 0.000000 1.000000
vn -0.998892 0.000000 -0.047069
vn -0.998892 0.000000 -0.047069
vn -0.998892 0.000000 -0.047069
vn -0.998892 0.000000 -0.047069
vn -0.998892 0.000000 -0.047069
vn -0.998892 0.000000 -0.047069
vn 0.000000 0.000000 1.000000
vn 0.000000 0.000000 1.000000
vn 0.000000 0.000000 1.000000
vn 0.000000 0.000000 1.000000
vn 0.000000 0.000000 1.000000
vn 0.000000 0.000000 1.000000
vn 0.000000 0.000000 1.000000
vn 0.000000 0.000000 1.000000
vn 0.000000 0.000000 1.000000
vn 0.000000 0.000000 1.000000
vn 0.000000 0.000000 1.000000
vn 0.000000 0.000000 1.000000
vn 0.000000 0.000000 1.000000
vn 0.000000 0.000000 1.000000
vn 0.000000 0.000000 1.000000
vn 0.000000 0.000000 1.000000
vn 0.000000 0.000000 1.000000
vn 0.000000 0.000000 1.000000
vn -0.999894 0.000000 -0.014543
vn -0.999894 0.000000 -0.014543
vn -0.999894 0.000000 -0.014543
vn -0.999894 0.000000 -0.014543
vn -0.999894 0.000000 -0.014543
vn -0.999894 0.000000 -0.014543
vn 0.000000 0.000000 1.000000
vn 0.000000 0.000000 1.000000
vn 0.000000 0.000000 1.000000
vn 0.000000 0.000000 1.000000
vn 0.000000 0.000000 1.000000
vn 0.000000 0.000000 1.000000
vn -1.000000 0.000000 0.000000
vn -1.000000 0.000000 0.000000
vn -1.000000 0.000000 0.000000
vn -1.000000 0.000000 0.000000
vn -1.000000 0.000000 0.000000
vn -1.000000 0.000000 0.000000
vn -1.000000 0.000000 0.000000
vn -1.000000 0.000000 0.000000
vn -1.000000 0.000000 0.000000
vn -1.000000 0.000000 0.000000
vn -1.000000 0.000000 0.000000
vn -1.000000 0.000000 0.000000
vn -1.000000 0.000000 0.000000
vn -1.000000 0.000000 0.000000
vn -1.000000 0.000000 0.000000
vn -1.000000 0.000000 0.000000
vn -1.000000 0.000000 0.000000
vn -1.000000 0.000000 0.000000
s off
g polySurface6 Plane_Plane
usemtl Plane_unlitblack
f 7/1/1 2/2/2 1/3/3
f 1/3/4 6/4/5 7/1/6
f 8/5/7 3/6/8 2/2/9
f 2/2/10 7/1/11 8/5/12
f 9/7/13 4/8/14 3/6/15
f 3/6/16 8/5/17 9/7/18
f 10/9/19 5/10/20 4/8/21
f 4/8/22 9/7/23 10/9/24
f 12/11/25 7/12/26 6/13/27
f 6/13/28 11/14/29 12/11/30
f 13/15/31 8/5/32 7/1/33
f 7/1/34 12/16/35 13/15/36
f 14/17/37 9/7/38 8/5/39
f 8/5/40 13/15/41 14/17/42
f 15/18/43 10/9/44 9/7/45
f 9/7/46 14/17/47 15/18/48
f 17/19/49 12/11/50 11/14/51
f 11/14/52 16/20/53 17/19/54
f 18/21/55 13/15/56 12/16/57
f 12/16/58 17/22/59 18/21/60
f 19/23/61 14/17/62 13/15/63
f 13/15/64 18/21/65 19/23/66
f 20/24/67 15/18/68 14/17/69
f 14/17/70 19/23/71 20/24/72
f 21/25/73 5/26/74 10/27/75
f 10/27/76 22/28/77 21/25/78
f 22/28/79 10/27/80 15/29/81
f 15/29/82 23/30/83 22/28/84
f 23/30/85 15/29/86 20/31/87
f 20/32/88 24/33/89 23/30/90
f 25/34/91 17/22/92 16/35/93
f 16/35/94 26/36/95 25/34/96
f 27/37/97 26/36/98 16/35/99
f 16/35/100 28/38/101 27/37/102
f 29/39/103 26/36/104 27/37/105
f 27/37/106 30/40/107 29/39/108
f 30/40/109 32/41/110 31/42/111
f 31/42/112 29/39/113 30/40/114
f 32/41/115 34/43/116 33/44/117
f 33/44/118 31/42/119 32/41/120
f 30/40/121 36/45/122 35/46/123
f 35/46/124 32/41/125 30/40/126
f 35/46/127 37/47/128 34/43/129
f 34/43/130 32/41/131 35/46/132
f 38/48/133 34/43/134 37/47/135
f 37/47/136 39/49/137 38/48/138
f 40/50/139 39/49/140 37/47/141
f 37/47/142 41/51/143 40/50/144
f 43/52/145 42/53/146 40/54/147
f 40/54/148 41/55/149 43/52/150
f 45/56/151 44/57/152 42/53/153
f 42/53/154 43/52/155 45/56/156
f 47/58/157 46/59/158 43/60/159
f 43/60/160 41/61/161 47/58/162
f 46/59/163 48/62/164 45/63/165
f 45/63/166 43/60/167 46/59/168
f 50/64/169 42/65/170 44/66/171
f 44/66/172 49/67/173 50/64/174
f 51/68/175 40/69/176 42/70/177
f 42/70/178 50/71/179 51/68/180
f 52/72/181 39/73/182 40/74/183
f 40/74/184 51/75/185 52/72/186
f 53/76/187 38/77/188 39/78/189
f 39/78/190 52/79/191 53/76/192
f 54/80/193 34/81/194 38/82/195
f 38/82/196 53/83/197 54/80/198
f 55/84/199 33/85/200 34/86/201
f 34/86/202 54/87/203 55/84/204
f 56/88/205 29/89/206 31/90/207
f 31/90/208 57/91/209 56/88/210
f 57/91/211 31/90/212 33/92/213
f 33/92/214 55/93/215 57/91/216
f 58/94/217 26/95/218 29/89/219
f 29/89/220 56/88/221 58/94/222
f 59/96/223 25/97/224 26/98/225
f 26/98/226 58/99/227 59/96/228
f 60/100/229 17/101/230 25/102/231
f 25/102/232 59/103/233 60/100/234
f 61/104/235 18/105/236 17/106/237
f 17/106/238 60/107/239 61/104/240
f 62/108/241 19/109/242 18/105/243
f 18/105/244 61/104/245 62/108/246
f 24/110/247 20/111/248 19/109/249
f 19/109/250 62/108/251 24/110/252
