# This file uses centimeters as units for non-parametric coordinates.

mtllib Book.mtl
g default
v -1.000000 -0.250000 1.250000
v 1.000000 -0.250000 1.250000
v -1.000000 0.250000 1.250000
v 1.000000 0.250000 1.250000
v -1.000000 0.250000 -1.250000
v 1.000000 0.250000 -1.250000
v -1.000000 -0.250000 -1.250000
v 1.000000 -0.250000 -1.250000
v 1.000000 -0.001188 1.250000
v 1.000000 -0.001188 -1.250000
v -1.116032 -0.125582 1.250000
v -0.875606 -0.001188 1.250000
v -1.116032 0.123206 1.250000
v -1.116032 0.123206 -1.250000
v -0.875606 -0.001188 -1.250000
v -1.116032 -0.125582 -1.250000
vt 0.599555 0.219751
vt 0.599572 0.268232
vt 0.411020 0.497172
vt 0.595466 0.546268
vt 0.406692 0.774527
vt 0.591684 0.777502
vt 0.849555 0.219751
vt 0.849259 0.269695
vt 0.849407 0.244611
vt 0.414283 0.222642
vt 0.599668 0.243880
vt 0.414285 0.265643
vt 0.596222 0.499926
vt 0.595850 0.523215
vt 0.400137 0.508805
vt 0.410386 0.543384
vt 0.230796 0.222297
vt 0.230769 0.234777
vt 0.230749 0.265630
vt 0.413133 0.235120
vt 0.230748 0.253022
vt 0.426734 0.244033
vt 0.413130 0.253027
vt 0.422220 0.520569
vt 0.399879 0.531760
vn 0.000000 1.000000 0.000000
vn 0.000000 1.000000 0.000000
vn 0.000000 1.000000 0.000000
vn 0.000000 1.000000 0.000000
vn 0.000000 0.000000 -1.000000
vn 0.000000 0.000000 -1.000000
vn 0.000000 0.000000 -1.000000
vn 0.000000 0.000000 -1.000000
vn 0.000000 0.000000 -1.000000
vn 0.000000 -1.000000 0.000000
vn 0.000000 -1.000000 0.000000
vn 0.000000 -1.000000 0.000000
vn 0.000000 -1.000000 0.000000
vn 1.000000 0.000000 0.000000
vn 1.000000 0.000000 0.000000
vn 1.000000 0.000000 0.000000
vn 1.000000 0.000000 0.000000
vn -0.955444 0.295174 -0.000000
vn -0.955444 0.295174 -0.000000
vn -0.737723 0.675103 -0.000000
vn -0.737723 0.675103 -0.000000
vn 0.000000 0.000000 1.000000
vn 0.000000 0.000000 1.000000
vn 0.000000 0.000000 1.000000
vn 0.000000 0.000000 1.000000
vn 0.000000 0.000000 1.000000
vn 1.000000 0.000000 0.000000
vn 1.000000 0.000000 0.000000
vn -0.731325 -0.682029 0.000000
vn -0.731325 -0.682029 0.000000
vn -0.954912 -0.296888 0.000000
vn -0.954912 -0.296888 0.000000
vn 0.000000 0.000000 1.000000
vn 0.000000 0.000000 1.000000
vn 0.000000 0.000000 1.000000
vn 0.000000 0.000000 -1.000000
vn 0.000000 0.000000 -1.000000
vn 0.000000 0.000000 -1.000000
s off
g pCube1
usemtl initialShadingGroup
f 3/12/1 4/2/2 6/13/3 5/3/4
s 1
f 5/3/5 6/13/6 10/14/7 15/24/8 14/15/9
s off
f 7/16/10 8/4/11 2/6/12 1/5/13
s 2
f 9/11/14 10/9/15 6/8/16 4/2/17
s 3
f 14/21/18 13/23/19 3/12/20 5/19/21
s 4
f 1/10/22 2/1/23 9/11/24 12/22/25 11/20/26
s 2
f 2/1/27 8/7/28 10/9/15 9/11/14
s 3
f 7/17/29 1/10/30 11/20/31 16/18/32
s 4
f 13/23/33 12/22/25 9/11/24 4/2/34 3/12/35
s 1
f 16/25/36 15/24/8 10/14/7 8/4/37 7/16/38
s 3
f 11/20/31 13/23/19 14/21/18 16/18/32
s 4
f 11/20/26 12/22/25 13/23/33
s 1
f 14/15/9 15/24/8 16/25/36
