# This file uses centimeters as units for non-parametric coordinates.

mtllib Coffin.mtl
g default
v 0.900824 1.246443 -0.829148
v 0.903329 1.246443 -1.329142
v 0.900824 1.496443 -0.829148
v 0.903329 1.496443 -1.329142
v -0.817572 1.496443 -0.837759
v -0.815066 1.496443 -1.337753
v -0.817572 1.246443 -0.837759
v -0.815066 1.246443 -1.337753
vt 0.718773 0.786436
vt 0.738207 0.787996
vt 0.718773 0.797917
vt 0.738436 0.797387
vt 0.719827 0.864219
vt 0.738968 0.864161
vt 0.720024 0.873357
vt 0.738497 0.873796
vt 0.718089 0.935993
vt 0.736335 0.936586
vt 0.800788 0.784954
vt 0.801247 0.794104
vt 0.639720 0.786429
vt 0.639720 0.797924
vn 0.999987 0.000000 0.005011
vn 0.999987 0.000000 0.005011
vn 0.999987 0.000000 0.005011
vn 0.999987 0.000000 0.005011
vn 0.000000 1.000000 0.000000
vn 0.000000 1.000000 0.000000
vn 0.000000 1.000000 0.000000
vn 0.000000 1.000000 0.000000
vn -0.999987 0.000000 -0.005011
vn -0.999987 0.000000 -0.005011
vn -0.999987 0.000000 -0.005011
vn -0.999987 0.000000 -0.005011
vn 0.000000 -1.000000 0.000000
vn 0.000000 -1.000000 0.000000
vn 0.000000 -1.000000 0.000000
vn 0.000000 -1.000000 0.000000
vn 0.005011 0.000000 -0.999988
vn 0.005011 0.000000 -0.999988
vn 0.005011 0.000000 -0.999988
vn 0.005011 0.000000 -0.999988
vn -0.005011 0.000000 0.999988
vn -0.005011 0.000000 0.999988
vn -0.005011 0.000000 0.999988
vn -0.005011 0.000000 0.999988
s off
g pCube8
usemtl initialShadingGroup
f 1/1/1 2/2/2 4/4/3 3/3/4
f 3/3/5 4/4/6 6/6/7 5/5/8
f 5/5/9 6/6/10 8/8/11 7/7/12
f 7/7/13 8/8/14 2/10/15 1/9/16
f 2/2/17 8/11/18 6/12/19 4/4/20
f 7/13/21 1/1/22 3/3/23 5/14/24
g default
v -1.500000 -0.500000 6.129969
v 1.500000 -0.500000 6.129969
v -1.500000 1.171197 6.129969
v 1.500000 1.171197 6.129969
v -1.500000 1.171197 -3.982851
v 1.500000 1.171197 -3.982851
v -1.500000 -0.500000 -3.982851
v 1.500000 -0.500000 -3.982851
v -2.311309 1.171197 -1.262851
v 2.311309 1.171197 -1.262851
v 2.311309 -0.500000 -1.262851
v -2.311309 -0.500000 -1.262851
v -2.116660 1.371349 -1.066089
v 2.116660 1.371349 -1.066089
v 1.373676 1.371349 -3.557021
v -1.373676 1.371349 -3.557021
v -1.373676 1.371349 5.704139
v 1.373676 1.371349 5.704139
vt 0.436197 0.049220
vt 0.556457 0.050647
vt 0.436197 0.117702
vt 0.555724 0.117682
vt 0.437758 0.503685
vt 0.554114 0.503686
vt 0.437747 0.568507
vt 0.554125 0.568495
vt 0.437835 0.960913
vt 0.554251 0.960881
vt 0.969188 0.055241
vt 0.968325 0.122573
vt 0.015239 0.049385
vt 0.015244 0.117541
vt 0.130962 0.117682
vt 0.404716 0.399224
vt 0.587173 0.399229
vt 0.853952 0.121013
vt 0.585642 0.674008
vt 0.854729 0.053887
vt 0.130971 0.049234
vt 0.406274 0.674051
vt 0.576447 0.391826
vt 0.547953 0.486108
vt 0.443917 0.486107
vt 0.415438 0.391830
vt 0.443839 0.134618
vt 0.548083 0.134606
vn 0.000000 0.000000 1.000000
vn 0.000000 0.000000 1.000000
vn 0.000000 0.000000 1.000000
vn 0.000000 0.000000 1.000000
vn 0.000000 1.000000 0.000000
vn 0.000000 1.000000 0.000000
vn 0.000000 1.000000 0.000000
vn 0.000000 1.000000 0.000000
vn 0.000000 0.000000 -1.000000
vn 0.000000 0.000000 -1.000000
vn 0.000000 0.000000 -1.000000
vn 0.000000 0.000000 -1.000000
vn 0.000000 -1.000000 0.000000
vn 0.000000 -1.000000 0.000000
vn 0.000000 -1.000000 0.000000
vn 0.000000 -1.000000 0.000000
vn 1.000000 0.000000 -0.000000
vn 1.000000 0.000000 0.000000
vn 0.958280 -0.000000 -0.285831
vn 0.958280 -0.000000 -0.285831
vn -0.958280 -0.000000 -0.285831
vn -1.000000 0.000000 0.000000
vn -1.000000 0.000000 -0.000000
vn -0.958280 -0.000000 -0.285831
vn 0.000000 1.000000 0.000000
vn 0.000000 1.000000 0.000000
vn 0.994032 0.000000 0.109088
vn 0.994032 0.000000 0.109088
vn 0.000000 -1.000000 0.000000
vn 0.000000 -1.000000 0.000000
vn -0.994032 0.000000 0.109088
vn -0.994032 0.000000 0.109088
vn 0.609593 0.771580 -0.181826
vn 0.609593 0.771580 -0.181826
vn 0.609593 0.771580 -0.181826
vn 0.609593 0.771580 -0.181826
vn 0.000000 0.905014 -0.425382
vn 0.000000 0.905014 -0.425382
vn 0.000000 0.905014 -0.425382
vn 0.000000 0.905014 -0.425382
vn -0.609593 0.771580 -0.181827
vn -0.609593 0.771580 -0.181827
vn -0.609593 0.771580 -0.181827
vn -0.609593 0.771580 -0.181827
vn 0.000000 0.905014 0.425382
vn 0.000000 0.905014 0.425382
vn 0.000000 0.905014 0.425382
vn 0.000000 0.905014 0.425382
vn 0.753862 0.651804 0.082731
vn 0.753862 0.651804 0.082731
vn 0.753862 0.651804 0.082731
vn 0.753862 0.651804 0.082731
vn -0.753862 0.651804 0.082731
vn -0.753862 0.651804 0.082731
vn -0.753862 0.651804 0.082731
vn -0.753862 0.651803 0.082731
s off
g pCube6
usemtl initialShadingGroup
f 9/15/25 10/16/26 12/18/27 11/17/28
s 1
f 21/40/29 22/37/30 23/38/31 24/39/32
s off
f 13/19/33 14/20/34 16/22/35 15/21/36
s 2
f 15/21/37 16/22/38 19/33/39 20/36/40
s 3
f 18/32/41 19/34/42 16/25/43 14/26/44
s 4
f 15/27/45 20/35/46 17/29/47 13/28/48
s 1
f 25/41/49 26/42/50 22/37/30 21/40/29
s 3
f 10/16/51 19/34/42 18/32/41 12/18/52
s 2
f 20/36/40 19/33/39 10/24/53 9/23/54
s 4
f 17/29/47 20/35/46 9/15/55 11/17/56
s off
f 18/31/57 14/20/58 23/38/59 22/37/60
f 14/20/61 13/19/62 24/39/63 23/38/64
f 13/19/65 17/30/66 21/40/67 24/39/68
f 11/17/69 12/18/70 26/42/71 25/41/72
f 12/18/73 18/31/74 22/37/75 26/42/76
f 17/30/77 11/17/78 25/41/79 21/40/80
g default
v -0.207121 1.234763 0.499728
v 0.292879 1.234763 0.499728
v -0.207121 1.484763 0.499728
v 0.292879 1.484763 0.499728
v -0.207121 1.484763 -2.073498
v 0.292879 1.484763 -2.073498
v -0.207121 1.234763 -2.073498
v 0.292879 1.234763 -2.073498
vt 0.862526 0.697327
vt 0.876243 0.711524
vt 0.862526 0.719792
vt 0.874634 0.716576
vt 0.875461 0.768378
vt 0.884067 0.766685
vt 0.877705 0.770365
vt 0.882265 0.770655
vt 0.874363 0.788976
vt 0.878034 0.789707
vt 0.918453 0.719804
vt 0.917691 0.723949
vt 0.629770 0.697253
vt 0.629770 0.719865
vn 0.000000 0.000000 1.000000
vn 0.000000 0.000000 1.000000
vn 0.000000 0.000000 1.000000
vn 0.000000 0.000000 1.000000
vn 0.000000 1.000000 0.000000
vn 0.000000 1.000000 0.000000
vn 0.000000 1.000000 0.000000
vn 0.000000 1.000000 0.000000
vn 0.000000 0.000000 -1.000000
vn 0.000000 0.000000 -1.000000
vn 0.000000 0.000000 -1.000000
vn 0.000000 0.000000 -1.000000
vn 0.000000 -1.000000 0.000000
vn 0.000000 -1.000000 0.000000
vn 0.000000 -1.000000 0.000000
vn 0.000000 -1.000000 0.000000
vn 1.000000 0.000000 0.000000
vn 1.000000 0.000000 0.000000
vn 1.000000 0.000000 0.000000
vn 1.000000 0.000000 0.000000
vn -1.000000 0.000000 0.000000
vn -1.000000 0.000000 0.000000
vn -1.000000 0.000000 0.000000
vn -1.000000 0.000000 0.000000
s off
g pCube7
usemtl initialShadingGroup
f 27/43/81 28/44/82 30/46/83 29/45/84
f 29/45/85 30/46/86 32/48/87 31/47/88
f 31/47/89 32/48/90 34/50/91 33/49/92
f 33/49/93 34/50/94 28/52/95 27/51/96
f 28/44/97 34/53/98 32/54/99 30/46/100
f 33/55/101 27/43/102 29/45/103 31/56/104
