# This file uses centimeters as units for non-parametric coordinates.

mtllib Harp.mtl
g default
v -1.015496 3.241414 0.178633
v 0.931602 3.241414 0.178633
v -1.015496 3.241414 -0.178633
v 0.931602 3.241414 -0.178633
v -0.817640 0.369669 0.178633
v -0.817640 0.369669 -0.178633
v 0.749866 0.377186 0.178633
v 0.749866 0.377186 -0.178633
v 0.632354 0.289985 0.178633
v 0.632354 0.289985 -0.178633
v -0.623499 0.286912 0.178633
v -0.623499 0.286912 -0.178633
v -0.758620 3.116923 -0.178633
v -0.766046 3.079277 -0.178633
v -0.890759 3.241414 -0.178633
v -0.766046 3.076152 0.178633
v -0.758620 3.116923 0.178633
v -0.890759 3.241414 0.178633
v 0.674583 3.116628 0.178633
v 0.681468 3.072785 0.178633
v 0.806444 3.241414 0.178633
v 0.674583 3.116628 -0.178633
v 0.806444 3.241414 -0.178633
v 0.681468 3.069921 -0.178633
v 0.807330 1.154432 -0.178633
v 0.632354 0.676595 -0.178633
v 0.807330 1.110063 0.178633
v -0.717856 0.839019 -0.178633
v -0.623499 0.626164 -0.178633
v -0.717856 0.794650 0.178633
v -0.623499 0.467738 0.178633
v 0.031851 0.479461 -0.178633
v 0.301164 0.598778 -0.178633
v 0.031851 0.511937 0.178633
v 0.301164 0.554409 0.178633
v -0.415664 0.571470 -0.178633
v -0.213012 0.481110 -0.178633
v -0.393919 0.572983 0.178633
v -0.213012 0.511937 0.178633
v -0.041274 0.186009 0.178633
v -0.041274 0.186009 -0.178633
v 1.108012 3.017774 0.178633
v 1.108012 3.017773 -0.178633
v 1.114890 3.241414 -0.178633
v 1.114890 3.241414 0.178633
v -1.246796 3.015998 0.178633
v -1.246796 3.015998 -0.178633
v -1.246796 3.241414 0.178633
v -1.246796 3.241414 -0.178633
v 1.016359 2.966667 0.178633
v 0.926652 3.006858 0.178633
v 1.016359 2.966666 -0.178633
v 0.926652 3.006857 -0.178633
v -1.131135 2.966545 0.178633
v -1.015496 3.022067 0.178633
v -1.131135 2.966546 -0.178633
v -1.015496 3.022067 -0.178633
v 1.078143 1.142437 0.178633
v 1.078143 1.142437 -0.178633
v -1.110470 1.163036 0.178633
v -1.110470 1.163037 -0.178633
v 0.891838 1.146737 -0.178633
v 0.891838 1.112613 0.178633
v -0.908748 1.150776 0.178633
v -0.761554 1.155048 0.178633
v -0.761800 1.200995 -0.178633
v -0.907536 1.200616 -0.178633
v 0.485063 0.371295 0.178633
v 0.657049 0.767029 0.178633
v 0.657049 0.811398 -0.178633
v 0.492522 0.631105 -0.178633
v 0.913767 1.906911 -0.178633
v 0.828265 2.347702 -0.178633
v 0.891497 1.930414 -0.178633
v 0.918372 1.894112 0.178633
v -0.855351 2.403637 -0.178633
v -0.921195 1.966409 -0.178633
v -0.866095 1.986548 -0.178633
v -0.865970 1.968363 0.178633
v -0.922977 1.944529 0.178633
v 0.909287 0.497224 0.178633
v 1.072272 0.816725 0.178633
v 1.072272 0.816725 -0.178633
v 0.909287 0.497224 -0.178633
v -0.975450 0.433770 0.178633
v -1.127406 0.668057 0.178633
v -1.127406 0.668057 -0.178633
v -0.975450 0.433770 -0.178633
v -1.179538 1.795462 -0.178633
v -1.165267 2.066791 -0.178633
v -1.059675 1.949119 -0.178633
v -1.179520 1.795852 0.178633
v -1.058727 1.938604 0.178633
v -1.165204 2.067179 0.178633
v 1.161388 1.780832 -0.178633
v 1.048197 1.909936 -0.178633
v 1.142470 2.041028 -0.178633
v 1.161388 1.780828 0.178633
v 1.142471 2.041025 0.178633
v 1.048502 1.903490 0.178633
v 1.064261 2.467275 -0.178633
v 1.085823 2.241932 -0.178633
v 0.941447 2.350175 -0.178633
v 1.064261 2.467280 0.178633
v 0.941696 2.344747 0.178633
v 1.085822 2.241937 0.178633
v -1.125388 2.250397 -0.178633
v -1.128448 2.495052 -0.178633
v -0.977359 2.388317 -0.178633
v -1.125449 2.250011 0.178633
v -0.976554 2.378026 0.178633
v -1.128444 2.494666 0.178633
v 1.085893 2.724093 0.178633
v 1.054778 2.888679 0.178633
v 1.038984 2.874550 0.178633
v 1.085893 2.724092 -0.178633
v 1.038984 2.874549 -0.178633
v 1.054778 2.888678 -0.178633
v -1.179833 2.705940 0.178633
v -1.148195 2.856664 0.178633
v -1.168210 2.873038 0.178633
v -1.179807 2.705943 -0.178633
v -1.168209 2.873042 -0.178633
v -1.148195 2.856664 -0.178633
v 0.756160 2.425104 -0.178633
v 0.794497 2.367008 -0.178633
v 0.771505 2.348764 -0.178633
v 0.773053 2.323975 0.178633
v 0.755876 2.409570 0.178633
v 0.862568 2.339206 0.178633
v 0.814658 2.383732 0.178633
v 0.833998 2.288743 0.178633
v -0.766856 2.476361 -0.178633
v -0.777477 2.385073 -0.178633
v -0.811396 2.416903 -0.178633
v -0.777886 2.365491 0.178633
v -0.766750 2.461616 0.178633
v -0.847852 2.434056 0.178633
v -0.900165 2.381366 0.178633
v -0.862323 2.332155 0.178633
vt 0.684714 0.314763
vt 0.685296 0.357481
vt 0.702538 0.414309
vt 0.710442 0.415009
vt 0.695812 0.326793
vt 0.709656 0.303520
vt 0.720871 0.315744
vt 0.761437 0.627797
vt 0.734894 0.634617
vt 0.736091 0.661406
vt 0.762751 0.654964
vt 0.511340 0.319426
vt 0.535068 0.307600
vt 0.536325 0.366756
vt 0.512381 0.377776
vt 0.551098 0.283694
vt 0.527329 0.295779
vt 0.543492 0.292017
vt 0.567371 0.279943
vt 0.544448 0.626741
vt 0.558011 0.628495
vt 0.532973 0.635740
vt 0.519531 0.634042
vt 0.706365 0.657650
vt 0.732811 0.651093
vt 0.745024 0.652672
vt 0.718490 0.659182
vt 0.727758 0.417954
vt 0.726499 0.381648
vt 0.710810 0.343236
vt 0.736026 0.332451
vt 0.644927 0.276895
vt 0.620506 0.288716
vt 0.563133 0.287004
vt 0.562947 0.325629
vt 0.348014 0.400997
vt 0.603838 0.318010
vt 0.627738 0.323068
vt 0.363596 0.429647
vt 0.672029 0.349595
vt 0.352053 0.376545
vt 0.374480 0.383421
vt 0.587140 0.274940
vt 0.547211 0.621861
vt 0.572317 0.614440
vt 0.719572 0.634102
vt 0.693282 0.640924
vt 0.546454 0.617033
vt 0.571539 0.609142
vt 0.720152 0.628829
vt 0.693875 0.635378
vt 0.712930 0.357495
vt 0.687828 0.372991
vt 0.678557 0.326042
vt 0.610267 0.313034
vt 0.553254 0.348106
vt 0.577425 0.331625
vt 0.587116 0.295743
vt 0.695868 0.309397
vt 0.494754 0.602157
vt 0.519344 0.594322
vt 0.519025 0.623454
vt 0.494338 0.630858
vt 0.752484 0.620412
vt 0.726028 0.627353
vt 0.743927 0.624073
vt 0.507422 0.597602
vt 0.532105 0.589729
vt 0.519833 0.606290
vt 0.717513 0.630982
vt 0.755961 0.611536
vt 0.729518 0.618591
vt 0.754405 0.609621
vt 0.727980 0.616706
vt 0.544653 0.598576
vt 0.503557 0.585267
vt 0.528163 0.577201
vt 0.530371 0.575423
vt 0.505752 0.583509
vt 0.751965 0.371410
vt 0.753378 0.408191
vt 0.727886 0.399362
vt 0.735861 0.401272
vt 0.572799 0.373160
vt 0.557509 0.369564
vt 0.548485 0.389349
vt 0.533460 0.386361
vt 0.761893 0.512510
vt 0.735806 0.520888
vt 0.730963 0.543205
vt 0.757109 0.535116
vt 0.706745 0.551635
vt 0.714007 0.501800
vt 0.711948 0.504145
vt 0.701309 0.550903
vt 0.703548 0.553389
vt 0.533544 0.499295
vt 0.509168 0.508522
vt 0.505198 0.485322
vt 0.529471 0.475847
vt 0.531186 0.477477
vt 0.537644 0.531873
vt 0.542263 0.534219
vt 0.545857 0.530876
vt 0.536945 0.480896
vt 0.524747 0.527978
vt 0.508459 0.538672
vt 0.502581 0.564118
vt 0.561480 0.469175
vt 0.555466 0.465201
vt 0.731544 0.547668
vt 0.736051 0.543122
vt 0.743656 0.545002
vt 0.755689 0.561373
vt 0.758475 0.592240
vt 0.736951 0.491417
vt 0.762925 0.482648
vt 0.532943 0.529883
vt 0.527101 0.555736
vt 0.699973 0.559639
vt 0.729447 0.569112
vt 0.732093 0.599554
vt 0.740285 0.491690
vt 0.726673 0.504330
vt 0.528259 0.442101
vt 0.504118 0.452056
vt 0.541031 0.461945
vt 0.516603 0.472889
vt 0.752647 0.494961
vt 0.733180 0.536695
vt 0.717544 0.553623
vt 0.549423 0.517856
vt 0.561647 0.514107
vt 0.557586 0.519578
vt 0.563126 0.527025
vt 0.727387 0.539920
vt 0.725922 0.549839
vt 0.546893 0.542233
vt 0.571725 0.531813
vt 0.570587 0.519686
vt 0.433144 0.450170
vt 0.390376 0.478239
vt 0.653771 0.342068
vt 0.333861 0.379511
vt 0.628272 0.310033
vt 0.351033 0.396264
vt 0.583791 0.323876
vt 0.652371 0.315411
vt 0.353926 0.404324
vt 0.327062 0.423685
vt 0.399415 0.403749
vt 0.304641 0.400068
vn 0.116372 -0.481579 -0.868642
vn -0.000000 0.000000 -1.000000
vn -0.919878 0.199785 -0.337505
vn -0.000000 0.000000 -1.000000
vn 0.280492 -0.374820 -0.883648
vn 0.186433 -0.771507 0.608293
vn 0.350255 -0.468044 0.811330
vn 0.810374 -0.290616 0.508759
vn 0.810373 -0.290617 -0.508760
vn 0.718132 0.566469 -0.404228
vn 0.718132 0.566469 0.404226
vn -0.665470 -0.123209 -0.736185
vn -0.681369 -0.126153 0.720986
vn -0.742725 -0.034332 0.668715
vn -0.735713 -0.034008 -0.676439
vn -0.337758 -0.350637 0.873483
vn -0.326375 -0.338820 -0.882429
vn -0.147904 -0.354459 -0.923300
vn -0.158744 -0.380438 0.911080
vn 0.000000 0.393680 0.919247
vn 0.125836 0.259652 0.957468
vn 0.126680 0.261393 -0.956883
vn 0.000000 0.396723 -0.917939
vn -0.131346 0.270532 -0.953709
vn -0.129505 0.266740 0.955028
vn 0.000000 0.369749 0.929132
vn 0.000000 0.372940 -0.927856
vn 0.736801 -0.068106 -0.672671
vn 0.684943 -0.179254 -0.706202
vn 0.511063 -0.374870 -0.773490
vn 0.523591 -0.384059 0.760494
vn 0.001500 -0.613130 0.789981
vn 0.001286 -0.525561 -0.850755
vn -0.103801 -0.438785 -0.892577
vn 0.000000 0.000000 -1.000000
vn 0.143174 0.224949 -0.963794
vn 0.037032 0.212245 -0.976515
vn -0.038816 0.250267 -0.967399
vn -0.136775 0.290173 -0.947150
vn -0.000000 0.000000 -1.000000
vn 0.046778 0.265988 0.962841
vn -0.045236 0.290032 0.955947
vn -0.121096 -0.511896 0.850470
vn 0.987006 0.158391 -0.027033
vn 0.987047 0.158398 0.025467
vn -0.998024 0.061070 0.014798
vn -0.997927 0.061064 -0.020344
vn 0.000000 -0.000000 -1.000000
vn 0.000000 -0.000000 1.000000
vn -0.000000 -0.000000 1.000000
vn -0.000000 -0.000000 -1.000000
vn -0.611127 0.563968 0.555395
vn -0.743325 0.668461 -0.025047
vn -0.182757 0.390430 0.902310
vn 0.203369 0.321626 0.924769
vn 0.580345 0.334397 -0.742548
vn 0.561481 0.337735 0.755430
vn 0.000000 0.000000 1.000000
vn -0.000000 0.000000 1.000000
vn -0.762693 -0.320932 -0.561518
vn -0.762693 -0.320932 0.561518
vn -0.624660 0.640965 0.446054
vn -0.624660 0.640965 -0.446053
vn 0.527981 -0.217721 0.820874
vn 0.527980 -0.217721 -0.820874
vn 0.000000 0.000000 1.000000
vn -0.459335 -0.252505 -0.851618
vn -0.459334 -0.252504 0.851618
vn 0.000000 0.000000 -1.000000
vn 0.000000 0.000000 -1.000000
vn 0.958911 0.274870 0.070253
vn 0.958911 0.274870 -0.070254
vn 0.000000 0.000000 1.000000
vn 0.000000 0.000000 -1.000000
vn 0.000000 0.000000 1.000000
vn -0.977991 0.182706 -0.100757
vn -0.977996 0.182706 0.100710
vn 0.000000 0.000000 1.000000
vn 0.000000 0.000000 -1.000000
vn 0.698854 -0.182894 0.691486
vn 0.739997 -0.068401 0.669123
vn -0.921590 0.206749 0.328522
vn -0.000000 0.000000 1.000000
vn 0.867094 0.110602 0.485711
vn 0.000000 0.000000 1.000000
vn 0.868536 0.110985 -0.483040
vn 0.000000 0.000000 -1.000000
vn 0.751614 0.123174 0.648001
vn 0.755654 0.123836 -0.643158
vn 0.690803 0.126750 -0.711847
vn 0.692034 0.126976 0.710609
vn -0.000000 -0.000000 -1.000000
vn -0.000000 0.000000 -1.000000
vn -0.996210 -0.033799 -0.080150
vn -0.954165 -0.280875 -0.103336
vn -0.000001 -0.000000 -1.000000
vn -0.687782 0.059156 0.723503
vn -0.683790 0.058774 -0.727308
vn -0.754288 0.089777 -0.650377
vn -0.749272 0.089210 0.656226
vn 0.000000 0.000000 -1.000000
vn 0.000000 -0.000000 -1.000000
vn 0.000000 -0.000000 -1.000000
vn 0.955009 -0.192408 -0.225691
vn 0.970847 0.011242 -0.239436
vn 0.000000 0.000000 -1.000000
vn -0.396421 -0.047332 -0.916848
vn -0.315164 -0.033137 -0.948458
vn 0.970752 0.014700 0.239634
vn 0.000000 -0.000000 1.000000
vn -0.000000 -0.000000 1.000000
vn 0.000000 0.000000 1.000000
vn 0.000000 0.000000 1.000000
vn 0.420846 -0.000061 0.907132
vn 0.344833 0.007760 0.938632
vn 0.793825 -0.056828 -0.605485
vn 0.797932 -0.057122 0.600035
vn -0.387981 -0.046302 0.920504
vn -0.311973 -0.032802 0.949525
vn -0.983548 -0.123001 -0.132301
vn 0.428036 -0.000062 -0.903762
vn 0.348489 0.007842 -0.937280
vn -0.824109 -0.020066 0.566075
vn 0.000000 0.000000 -1.000000
vn -0.769918 -0.046632 0.636437
vn -0.766195 -0.046432 -0.640929
vn 0.000000 0.000000 1.000000
vn 0.000000 0.000000 -1.000000
vn 0.000000 0.000000 1.000000
vn -0.000000 -0.000000 1.000000
vn 0.000000 0.000000 -1.000000
vn 0.000000 0.000000 1.000000
vn 0.000000 -0.000000 1.000000
vn 0.000000 0.000000 1.000000
vn 0.000000 -0.000000 1.000000
vn -0.956596 -0.282485 0.071595
vn -0.987408 -0.123785 0.098506
vn 0.983490 -0.025069 -0.179217
vn 0.989193 -0.025637 0.144362
vn 0.971334 -0.196479 0.133814
s 1
g pCube14
usemtl initialShadingGroup
f 10/1/1 26/2/2 25/3/3 62/4/4 8/5/5
f 9/6/6 10/1/1 8/5/5 7/7/7
f 42/8/8 43/9/9 44/10/10 45/11/11
f 87/12/12 86/13/13 60/14/14 61/15/15
f 85/16/16 88/17/17 6/18/18 5/19/19
f 1/20/20 18/21/21 15/22/22 3/23/23
f 23/24/24 21/25/25 2/26/26 4/27/27
f 8/5/5 62/4/4 59/28/28 83/29/29 84/30/30
f 7/7/7 8/5/5 84/30/30 81/31/31
f 40/32/32 41/33/33 10/1/1 9/6/6
f 12/34/34 29/35/35 36/147/36 37/37/37 32/38/38 33/143/39 71/40/40 26/2/2 10/1/1 41/33/33
f 37/146/37 39/41/41 34/42/42 32/149/38
f 5/19/19 6/18/18 12/34/34 11/43/43
f 13/44/44 15/22/22 18/21/21 17/45/45
f 19/46/46 21/25/25 23/24/24 22/47/47
f 13/44/44 14/48/48 15/22/22
f 16/49/49 17/45/45 18/21/21
f 19/46/46 20/50/50 21/25/25
f 22/47/47 23/24/24 24/51/51
f 69/141/52 70/142/53 33/39/39 35/151/54
f 38/144/55 36/36/36 28/150/56 30/152/57
f 28/56/56 36/147/36 29/35/35
f 30/57/57 31/58/58 38/55/55
f 33/143/39 70/53/53 71/40/40
f 35/54/54 68/59/59 69/52/52
f 33/39/39 32/149/38 34/42/42 35/151/54
f 39/145/41 38/55/55 31/58/58 11/43/43 40/32/32 9/6/6 68/59/59 35/54/54 34/148/42
f 37/146/37 36/36/36 38/144/55 39/41/41
f 11/43/43 12/34/34 41/33/33 40/32/32
f 47/60/60 46/61/61 48/62/62 49/63/63
f 50/64/64 52/65/65 43/9/9 42/8/8
f 4/27/27 2/26/26 45/11/11 44/10/10
f 2/26/26 51/66/66 50/64/64 42/8/8 45/11/11
f 56/67/67 54/68/68 46/61/61 47/60/60
f 1/20/20 3/23/23 49/63/63 48/62/62
f 3/23/23 57/69/69 56/67/67 47/60/60 49/63/63
f 52/65/65 53/70/70 4/27/27 44/10/10 43/9/9
f 50/64/64 114/71/71 118/72/72 52/65/65
f 50/64/64 51/66/66 115/73/73 114/71/71
f 52/65/65 118/72/72 117/74/74 53/70/70
f 54/68/68 55/75/75 1/20/20 48/62/62 46/61/61
f 123/76/76 121/77/77 54/68/68 56/67/67
f 54/68/68 121/77/77 120/78/78 55/75/75
f 56/67/67 57/69/69 124/79/79 123/76/76
f 82/80/80 83/29/29 59/28/28 58/81/81
f 27/82/82 9/6/6 7/7/7 63/83/83
f 58/81/81 63/83/83 7/7/7 81/31/31 82/80/80
f 65/84/84 64/85/85 5/19/19 11/43/43 31/58/58 30/57/57
f 66/86/86 65/84/84 30/57/57 28/56/56
f 6/18/18 67/87/87 66/86/86 28/56/56 29/35/35 12/34/34
f 61/15/15 67/87/87 6/18/18 88/17/17 87/12/12
f 69/52/52 68/59/59 9/6/6 27/82/82
f 25/3/3 70/53/53 69/52/52 27/82/82
f 71/40/40 70/53/53 25/3/3 26/2/2
f 99/88/88 97/89/89 102/90/90 106/91/91
f 73/92/92 72/93/93 74/94/94 127/95/95 126/96/96
f 110/97/97 107/98/98 90/99/99 94/100/100
f 77/101/101 76/102/102 135/103/103 134/104/104 78/105/105
f 3/23/23 15/22/22 14/48/48 76/102/102 109/106/106 108/107/107 122/108/108 124/79/79 57/69/69
f 66/86/86 67/87/87 77/101/101 78/105/105
f 78/105/105 79/109/109 65/84/84 66/86/86
f 79/109/109 80/110/110 64/85/85 65/84/84
f 21/25/25 20/50/50 131/111/111 130/112/112 105/113/113 104/114/114 113/115/115 115/73/73 51/66/66 2/26/26
f 58/81/81 59/28/28 95/116/116 98/117/117
f 108/107/107 112/118/118 119/119/119 122/108/108
f 73/92/92 126/96/96 125/120/120 22/47/47 24/51/51
f 104/114/114 101/121/121 116/122/122 113/115/115
f 62/4/4 25/3/3 74/94/94 72/93/93
f 25/3/3 27/82/82 75/123/123 74/94/94
f 27/82/82 63/83/83 75/123/123
f 59/28/28 62/4/4 72/93/93 96/124/124 95/116/116
f 61/15/15 60/14/14 92/125/125 89/126/126
f 60/14/14 64/85/85 80/110/110 93/127/127 92/125/125
f 82/80/80 81/31/31 84/30/30 83/29/29
f 86/13/13 85/16/16 5/19/19 64/85/85 60/14/14
f 85/16/16 86/13/13 87/12/12 88/17/17
f 89/126/126 91/128/128 77/101/101 67/87/87 61/15/15
f 91/128/128 90/99/99 107/98/98 109/106/106 76/102/102 77/101/101
f 90/99/99 89/126/126 92/125/125 94/100/100
f 89/126/126 90/99/99 91/128/128
f 92/125/125 93/127/127 94/100/100
f 98/117/117 100/129/129 75/123/123 63/83/83 58/81/81
f 100/129/129 99/88/88 106/91/91 105/113/113 130/112/112 132/130/130 75/123/123
f 95/116/116 97/89/89 99/88/88 98/117/117
f 95/116/116 96/124/124 97/89/89
f 98/117/117 99/88/88 100/129/129
f 101/121/121 103/131/131 73/92/92 24/51/51 23/24/24 4/27/27 53/70/70 117/74/74 116/122/122
f 103/131/131 102/90/90 97/89/89 96/124/124 72/93/93 73/92/92
f 102/90/90 101/121/121 104/114/114 106/91/91
f 101/121/121 102/90/90 103/131/131
f 104/114/114 105/113/113 106/91/91
f 111/132/132 110/97/97 94/100/100 93/127/127 80/110/110 140/133/133 139/134/134
f 112/118/118 111/132/132 139/134/134 138/135/135 16/49/49 18/21/21 1/20/20 55/75/75 120/78/78 119/119/119
f 108/107/107 107/98/98 110/97/97 112/118/118
f 107/98/98 108/107/107 109/106/106
f 110/97/97 111/132/132 112/118/118
f 114/71/71 113/115/115 116/122/122 118/72/72
f 119/119/119 121/77/77 123/76/76 122/108/108
f 113/115/115 114/71/71 115/73/73
f 116/122/122 117/74/74 118/72/72
f 119/119/119 120/78/78 121/77/77
f 122/108/108 123/76/76 124/79/79
f 125/120/120 127/95/95 128/136/136 129/137/137
f 129/137/137 128/136/136 132/130/130 131/111/111
f 128/136/136 127/95/95 74/94/94 75/123/123
f 128/136/136 75/123/123 132/130/130
f 125/120/120 129/137/137 19/46/46 22/47/47
f 129/137/137 131/111/111 20/50/50 19/46/46
f 125/120/120 126/96/96 127/95/95
f 130/112/112 131/111/111 132/130/130
f 133/138/138 135/103/103 76/102/102 14/48/48 13/44/44
f 134/104/104 133/138/138 137/139/139 136/140/140
f 136/140/140 137/139/139 138/135/135 140/133/133
f 78/105/105 134/104/104 136/140/140 79/109/109
f 79/109/109 136/140/140 140/133/133 80/110/110
f 13/44/44 17/45/45 137/139/139 133/138/138
f 17/45/45 16/49/49 138/135/135 137/139/139
f 133/138/138 134/104/104 135/103/103
f 138/135/135 139/134/134 140/133/133
g default
v -0.500000 -0.250000 0.250000
v 0.500000 -0.250000 0.250000
v -0.500000 0.250000 0.250000
v 0.500000 0.250000 0.250000
v -0.500000 0.250000 -0.250000
v 0.500000 0.250000 -0.250000
v -0.500000 -0.250000 -0.250000
v 0.500000 -0.250000 -0.250000
v -0.500000 0.151311 0.250000
v 0.500000 0.151311 0.250000
v 0.500000 0.151311 -0.250000
v -0.500000 0.151311 -0.250000
v -0.500000 0.064618 0.250000
v 0.500000 0.064618 0.250000
v 0.500000 0.064618 -0.250000
v -0.500000 0.064618 -0.250000
v -0.500000 -0.040907 0.250000
v 0.500000 -0.040907 0.250000
v 0.500000 -0.040907 -0.250000
v -0.500000 -0.040907 -0.250000
v -0.443538 -0.018803 0.213423
v 0.443538 -0.018803 0.213423
v 0.443538 0.042513 0.213423
v -0.443538 0.042513 0.213423
v 0.443538 -0.018803 -0.213423
v 0.443538 0.042513 -0.213423
v -0.443538 0.042513 -0.213423
v -0.443538 -0.018803 -0.213423
vt 0.199719 0.154673
vt 0.262756 0.154673
vt 0.199719 0.217710
vt 0.262756 0.217710
vt 0.199719 0.280746
vt 0.262756 0.280746
vt 0.199719 0.343783
vt 0.262756 0.343783
vt 0.199719 0.406820
vt 0.262756 0.406820
vt 0.325793 0.154673
vt 0.325793 0.217710
vt 0.136682 0.154673
vt 0.136682 0.217710
vt 0.199719 0.205268
vt 0.262756 0.205268
vt 0.262756 0.293189
vt 0.325793 0.205268
vt 0.136682 0.205268
vt 0.199719 0.293189
vt 0.199719 0.194338
vt 0.262756 0.194338
vt 0.262756 0.304118
vt 0.325793 0.194338
vt 0.136682 0.194338
vt 0.199719 0.304118
vt 0.199719 0.181034
vt 0.262756 0.181034
vt 0.262756 0.317422
vt 0.325793 0.181034
vt 0.136682 0.181034
vt 0.199719 0.317422
vt 0.199719 0.181034
vt 0.262756 0.181034
vt 0.262756 0.194338
vt 0.199719 0.194338
vt 0.325793 0.181034
vt 0.325793 0.194338
vt 0.199719 0.304118
vt 0.262756 0.304118
vt 0.262756 0.317422
vt 0.199719 0.317422
vt 0.136682 0.181034
vt 0.136682 0.194338
vn -0.447214 0.000000 0.894427
vn 0.447214 0.000000 0.894427
vn 0.096370 0.976506 0.192741
vn -0.096370 0.976506 0.192741
vn 0.096370 0.976506 -0.192741
vn -0.096370 0.976506 -0.192741
vn 0.447214 0.000000 -0.894427
vn -0.447214 0.000000 -0.894427
vn -0.189413 -0.905878 -0.378825
vn 0.189413 -0.905878 -0.378825
vn 0.189413 -0.905878 0.378825
vn -0.189413 -0.905878 0.378825
vn -0.446422 -0.279707 0.849983
vn 0.446422 -0.279707 0.849983
vn 0.446422 -0.279707 -0.849983
vn -0.446422 -0.279707 -0.849983
vn -0.303322 0.683192 0.664263
vn 0.303322 0.683192 0.664263
vn 0.303322 -0.683192 0.664263
vn -0.303322 -0.683192 0.664263
vn 0.303322 0.683192 -0.664263
vn 0.303322 -0.683192 -0.664263
vn -0.303322 -0.683192 -0.664263
vn -0.303322 0.683192 -0.664263
vn 0.451360 0.127230 0.883225
vn -0.451360 0.127230 0.883225
vn 0.451360 0.127230 -0.883225
vn -0.451360 0.127230 -0.883225
s 1
g pCube13
usemtl initialShadingGroup
f 149/167/141 150/168/142 144/156/143 143/155/144
f 143/155/144 144/156/143 146/158/145 145/157/146
f 145/157/146 146/158/145 151/169/147 152/172/148
f 147/159/149 148/160/150 142/162/151 141/161/152
f 150/168/142 151/170/147 146/164/145 144/156/143
f 152/171/148 149/167/141 143/155/144 145/166/146
f 153/173/153 154/174/154 150/168/142 149/167/141
f 154/174/154 155/176/155 151/170/147 150/168/142
f 152/172/148 151/169/147 155/175/155 156/178/156
f 156/177/156 153/173/153 149/167/141 152/171/148
f 161/185/157 162/186/158 163/187/159 164/188/160
f 162/186/158 165/189/161 166/190/162 163/187/159
f 167/191/163 166/192/162 165/193/161 168/194/164
f 168/195/164 161/185/157 164/188/160 167/196/163
f 141/153/152 142/154/151 158/180/165 157/179/166
f 142/154/151 148/163/150 159/182/167 158/180/165
f 160/184/168 159/181/167 148/160/150 147/159/149
f 147/165/149 141/153/152 157/179/166 160/183/168
f 157/179/166 158/180/165 162/186/158 161/185/157
f 154/174/154 153/173/153 164/188/160 163/187/159
f 158/180/165 159/182/167 165/189/161 162/186/158
f 155/176/155 154/174/154 163/187/159 166/190/162
f 156/178/156 155/175/155 166/192/162 167/191/163
f 159/181/167 160/184/168 168/194/164 165/193/161
f 160/183/168 157/179/166 161/185/157 168/195/164
f 153/173/153 156/177/156 167/196/163 164/188/160
