# This file uses centimeters as units for non-parametric coordinates.

mtllib Mirror1.mtl
g default
v -0.250000 0.290623 1.430918
v 0.250000 0.290623 1.430918
v -0.250000 3.734097 1.328787
v 0.250000 3.734097 1.328787
v -0.250000 3.762446 -1.363396
v 0.250000 3.762446 -1.363396
v -0.250000 0.290623 -1.430918
v 0.250000 0.290623 -1.430918
v 0.250000 1.864860 0.000000
v -0.250000 1.864860 0.000000
v -0.250000 1.864860 0.965665
v -0.250000 0.899388 1.723011
v -0.250000 2.772956 1.643658
v 0.250000 1.864860 0.965665
v 0.250000 2.772956 1.643658
v 0.250000 0.899388 1.723011
v 0.250000 2.772956 -1.643658
v 0.250000 1.864860 -0.965665
v 0.250000 0.899388 -1.723011
v -0.250000 1.864860 -0.965665
v -0.250000 2.772956 -1.643658
v -0.250000 0.899388 -1.723011
v -0.250000 3.912207 0.000000
v -0.250000 4.263536 0.749925
v -0.250000 4.263536 -0.749925
v 0.250000 3.912207 0.000000
v 0.250000 4.263536 -0.749925
v 0.250000 4.263536 0.749925
v 0.250000 -0.182488 0.000000
v 0.250000 -0.533816 0.749925
v 0.250000 -0.533816 -0.749925
v -0.250000 -0.182488 0.000000
v -0.250000 -0.533816 -0.749925
v -0.250000 -0.533816 0.749925
v 0.250000 -0.724020 0.000000
v -0.250000 -0.724020 0.000000
v -0.250000 4.453739 0.000000
v 0.250000 4.453739 0.000000
v -0.250000 1.864860 1.861609
v 0.250000 1.864860 1.861609
v 0.250000 1.864860 -1.861609
v -0.250000 1.864860 -1.861609
vt 0.423352 0.355918
vt 0.655622 0.432079
vt 0.368018 0.530486
vt 0.577195 0.642553
vt 0.498567 0.344538
vt 0.602877 0.419127
vt 0.420061 0.575702
vt 0.525787 0.650128
vt 0.585063 0.301056
vt 0.621175 0.392250
vt 0.492467 0.378665
vt 0.487610 0.552598
vt 0.529033 0.617731
vt 0.438687 0.695611
vt 0.400780 0.606833
vt 0.336059 0.303622
vt 0.316036 0.502410
vt 0.350867 0.546722
vt 0.365347 0.367050
vt 0.337816 0.484531
vt 0.508222 0.497027
vt 0.371703 0.445797
vt 0.371143 0.394836
vt 0.422801 0.380365
vt 0.645987 0.547880
vt 0.643621 0.598506
vt 0.574686 0.613980
vt 0.634683 0.450592
vt 0.677487 0.508318
vt 0.528653 0.441454
vt 0.655257 0.627465
vt 0.422299 0.749549
vt 0.687798 0.686115
vt 0.704305 0.494036
vt 0.688182 0.563820
vt 0.720746 0.575727
vt 0.293257 0.416911
vt 0.334114 0.432026
vt 0.562434 0.359167
vt 0.550351 0.389600
vt 0.469621 0.607005
vt 0.459738 0.636059
vt 0.767393 0.470557
vt 0.251326 0.530308
vt 0.608153 0.249549
vn 0.000000 0.274129 0.961693
vn 0.000000 0.274129 0.961693
vn 0.000000 0.311322 0.950305
vn 0.000000 0.311322 0.950305
vn 0.000000 0.891903 -0.452228
vn 0.000000 0.891903 -0.452228
vn 0.000000 0.774478 -0.632601
vn 0.000000 0.774478 -0.632601
vn 0.000000 0.272518 -0.962151
vn 0.000000 0.272518 -0.962151
vn 0.000000 0.253944 -0.967219
vn 0.000000 0.253944 -0.967219
vn 0.000000 -0.636845 -0.770992
vn 0.000000 -0.636845 -0.770992
vn 0.000000 -0.815735 -0.578426
vn 0.000000 -0.815735 -0.578426
vn 0.000000 0.737905 0.674904
vn 0.000000 0.737905 0.674904
vn 0.000000 0.879324 0.476223
vn 0.000000 0.879324 0.476223
vn 0.000000 -0.815735 0.578426
vn 0.000000 -0.815735 0.578426
vn 0.000000 -0.636845 0.770992
vn 0.000000 -0.636845 0.770992
vn 0.000000 -0.432595 0.901589
vn 0.000000 -0.432595 0.901589
vn 0.000000 -0.263889 0.964553
vn 0.000000 -0.263889 0.964553
vn 1.000000 0.000000 0.000000
vn 1.000000 0.000000 0.000000
vn 1.000000 0.000000 0.000000
vn 1.000000 0.000000 0.000000
vn 1.000000 0.000000 0.000000
vn 1.000000 0.000000 0.000000
vn 0.000000 -0.263889 -0.964553
vn 0.000000 -0.263889 -0.964553
vn 0.000000 -0.432595 -0.901589
vn 0.000000 -0.432595 -0.901589
vn -1.000000 0.000000 0.000000
vn -1.000000 0.000000 0.000000
vn -1.000000 0.000000 0.000000
vn -1.000000 0.000000 0.000000
vn -1.000000 0.000000 0.000000
vn -1.000000 0.000000 0.000000
vn -1.000000 0.000000 0.000000
vn -1.000000 0.000000 0.000000
vn -1.000000 0.000000 0.000000
vn -1.000000 0.000000 0.000000
vn 1.000000 0.000000 0.000000
vn 1.000000 0.000000 0.000000
vn 1.000000 0.000000 0.000000
vn 1.000000 0.000000 0.000000
vn 1.000000 0.000000 0.000000
vn 1.000000 0.000000 0.000000
vn 1.000000 0.000000 0.000000
vn 1.000000 0.000000 0.000000
vn -1.000000 0.000000 0.000000
vn -1.000000 0.000000 0.000000
vn -1.000000 0.000000 0.000000
vn -1.000000 0.000000 0.000000
vn 0.000000 0.042316 0.999104
vn 0.000000 0.042316 0.999104
vn 0.000000 0.042316 -0.999104
vn 0.000000 0.042316 -0.999104
vn -1.000000 0.000000 0.000000
vn -1.000000 0.000000 0.000000
vn 1.000000 0.000000 0.000000
vn 1.000000 0.000000 0.000000
vn 1.000000 0.000000 0.000000
vn -1.000000 0.000000 0.000000
vn -1.000000 0.000000 0.000000
vn -1.000000 0.000000 0.000000
vn 1.000000 0.000000 0.000000
vn 1.000000 0.000000 0.000000
vn 0.000000 1.000000 0.000000
vn 0.000000 1.000000 0.000000
vn 0.000000 -1.000000 0.000000
vn 0.000000 -1.000000 0.000000
vn -1.000000 0.000000 0.000000
vn 1.000000 0.000000 0.000000
vn 1.000000 0.000000 0.000000
vn -1.000000 0.000000 0.000000
s 1
g pCube3
usemtl initialShadingGroup
f 13/5/1 15/11/2 4/24/3 3/1/4
s 2
f 25/17/5 27/20/6 6/3/7 5/18/8
s 3
f 5/18/9 6/3/10 17/7/11 21/15/12
s 4
f 7/4/13 8/27/14 31/26/15 33/31/16
s 2
f 3/1/17 4/24/18 28/23/19 24/19/20
s 4
f 34/34/21 30/29/22 2/28/23 1/2/24
s 1
f 1/2/25 2/28/26 16/6/27 12/10/28
s 8
f 2/28/29 30/29/30 29/25/31 9/21/32 14/30/33 16/6/34
s 3
f 22/8/35 19/13/36 8/27/37 7/4/38
s 10
f 7/4/39 33/31/40 32/33/41 10/32/42 20/14/43 22/8/44
f 12/10/45 11/9/46 10/45/42 32/43/41 34/34/47 1/2/48
s 8
f 15/11/49 14/30/33 9/21/32 26/22/50 28/23/51 4/24/52
f 19/13/53 18/12/54 9/21/32 29/25/31 31/26/55 8/27/56
s 10
f 21/15/57 20/14/43 10/32/42 23/44/58 25/17/59 5/18/60
s 1
f 13/5/1 39/39/61 40/40/62 15/11/2
s 3
f 17/7/11 41/41/63 42/42/64 21/15/12
s 10
f 11/9/46 39/39/65 13/5/66
s 8
f 14/30/33 15/11/49 40/40/67
f 17/7/68 18/12/54 41/41/69
s 10
f 20/14/43 21/15/57 42/42/70
f 24/19/71 23/16/58 10/45/42 11/9/46 13/5/66 3/1/72
s 8
f 27/20/73 26/22/50 9/21/32 18/12/54 17/7/68 6/3/74
s 2
f 25/17/5 37/37/75 38/38/76 27/20/6
s 4
f 31/26/15 35/35/77 36/36/78 33/31/16
s 10
f 23/44/58 37/37/79 25/17/59
s 8
f 26/22/50 27/20/73 38/38/80
f 29/25/31 35/35/81 31/26/55
s 10
f 32/43/41 36/36/82 34/34/47
s 4
f 36/36/78 35/35/77 30/29/22 34/34/21
s 2
f 38/38/76 37/37/75 24/19/20 28/23/19
s 1
f 40/40/62 39/39/61 12/10/28 16/6/27
s 3
f 42/42/64 41/41/63 19/13/36 22/8/35
s 10
f 11/9/46 12/10/45 39/39/65
s 8
f 14/30/33 40/40/67 16/6/34
f 41/41/69 18/12/54 19/13/53
s 10
f 20/14/43 42/42/70 22/8/44
f 23/16/58 24/19/71 37/37/79
s 8
f 26/22/50 38/38/80 28/23/51
s 10
f 32/33/41 33/31/40 36/36/82
s 8
f 29/25/31 30/29/30 35/35/81
